<?xml version="1.0" encoding="utf-8"?>
<!-- Generator: Adobe Illustrator 23.0.3, SVG Export Plug-In . SVG Version: 6.00 Build 0)  -->
<svg version="1.1" xmlns="http://www.w3.org/2000/svg" xmlns:xlink="http://www.w3.org/1999/xlink" x="0px" y="0px"
	 viewBox="0 0 1600 1200" style="enable-background:new 0 0 1600 1200;" xml:space="preserve">
<style type="text/css">
	.st0{fill:#E8E8E8;}
	.st1{fill:#FFFFFF;}
	.st2{fill:#461EB8;}
	.st3{fill:#EC615B;}
	.st4{fill:#020202;}
	.st5{opacity:0.2;fill:#919191;}
	.st6{opacity:0.22;fill:#919191;}
	.st7{opacity:0.1;fill:#919191;}
	.st8{opacity:0.21;fill:#919191;}
</style>
<g id="background">
	<g>
		<g>
			<path class="st0" d="M125.9,981c148.7,0,297.4,0,446.1,0c147.9,0,295.9,0,443.8,0c83.4,0,166.9,0,250.3,0c1.9,0,1.9-3,0-3
				c-148.7,0-297.4,0-446.1,0c-147.9,0-295.9,0-443.8,0c-83.4,0-166.9,0-250.3,0C124,978,124,981,125.9,981L125.9,981z"/>
		</g>
	</g>
	<g>
		<g>
			<path class="st0" d="M628.9,1069.8c83.8,0,167.7,0,251.5,0s167.7,0,251.5,0c47.2,0,94.5,0,141.7,0c1.9,0,1.9-3,0-3
				c-83.8,0-167.7,0-251.5,0s-167.7,0-251.5,0c-47.2,0-94.5,0-141.7,0C626.9,1066.8,626.9,1069.8,628.9,1069.8L628.9,1069.8z"/>
		</g>
	</g>
	<g>
		<g>
			<path class="st0" d="M166,975c-7.9-4.5-14.9-10.3-20.6-17.4c-2.8-3.4-5.4-7.1-7.5-11c-1.2-2.2-2.3-4.4-3.3-6.7
				c-0.5-1.1-1-2.2-1.3-3.3c-0.2-0.6-0.4-1.3-0.4-2c-0.8-2.5,0.8-3.9,4.7-4.2c1.1,1.5,3.7,0.1,2.6-1.5c-2.9-4-5.5-8.2-7.6-12.7
				c-1.2-2.5-2.3-5.1-3.2-7.7c-0.4-1.1-0.7-2.2-1.1-3.3c-0.2-0.6-0.3-1.1-0.5-1.7c-0.6-1.4-0.3-2.8,0.8-4.1c1,1.7,3.4,0.2,2.6-1.5
				c-6.4-13.3-12.3-26.7-17.8-40.4c-2.6-6.4-5.1-12.9-7.4-19.5c-1.1-3.1-2.5-6.3-3.3-9.5c-0.6-2.6-1.2-6.7,1.7-8.4
				c1.5-0.9,4.1-1,4.8,0.9c0.7,1.8,3.5,1.1,2.9-0.8c-3.1-9.3-2.8-18.6,1-27.6c-0.6,0.3-1.2,0.7-1.8,1c10.6,3.7,14.6,17.2,18.7,26.5
				c5.2,11.7,10.4,23.4,15.5,35.1c10.4,23.7,20.7,47.5,30.8,71.3c0.7,1.6,3.2,0.4,2.7-1.2c-2.6-8.5-2.9-17-0.9-25.7
				c-0.6,0.3-1.2,0.7-1.8,1c3.9,1.5,6.4,4.8,6.9,8.9c1-0.1,2-0.3,2.9-0.4c-1.9-4.6,0.1-9.8,5-11.3c-0.6-0.2-1.1-0.5-1.7-0.7
				c13.2,24.9,23.3,51.3,30.2,78.6c0.5,1.9,3.4,1.1,2.9-0.8c-7-27.6-17.2-54.2-30.5-79.4c-0.3-0.6-1.1-0.9-1.7-0.7
				c-6.3,2-9.7,8.9-7.1,15c0.6,1.4,3.2,1.5,2.9-0.4c-0.7-5.7-3.8-9.7-9.2-11.8c-0.7-0.3-1.7,0.3-1.8,1c-2.1,9.1-1.8,18.3,0.9,27.3
				c0.9-0.4,1.8-0.8,2.7-1.2c-10.9-25.6-21.9-51.2-33.1-76.7c-5.5-12.6-11.1-25.2-16.8-37.7c-3.7-8.1-7.9-16.7-16.9-19.8
				c-0.8-0.3-1.5,0.3-1.8,1c-3.9,9.4-4.3,19.6-1,29.2c1-0.3,1.9-0.5,2.9-0.8c-1.6-4.2-6.8-4.8-10.2-2c-6.2,5.1-0.6,15.8,1.5,21.5
				c7.4,20.3,15.8,40.2,25.2,59.7c0.9-0.5,1.7-1,2.6-1.5c-1-1.7-2.8-2.3-4.7-1.4c-2.4,1.2-2.4,3.9-2,6.2c1.8,9.8,7.3,19.7,13.1,27.7
				c0.9-0.5,1.7-1,2.6-1.5c-2.3-3.1-6.6-3-9,0c-3.9,4.9,0.7,12.7,3.1,17.2c6.9,13.2,17.5,24,30.3,31.5
				C166.2,978.6,167.7,976,166,975L166,975z"/>
		</g>
	</g>
	<g>
		<g>
			<path class="st0" d="M313.1,977c-4.2-3.7-7.6-8-10-13c-1.1-2.4-2-5-2.6-7.6c-0.3-1.5-0.6-3-0.6-4.5c0.1-2.7,3.8-8.8,6.7-4.2
				c1,1.7,3.4,0.2,2.6-1.5c-3.3-6.6-5.9-13.4-7.7-20.6c-0.8-3.2-1.5-6.4-2-9.6c-0.3-2.2-0.6-4.5-0.8-6.7c-0.1-1.5-0.8-9.8,3.5-7.4
				c1.1,0.7,2.5-0.4,2.2-1.7c-6-22.8-7.8-46.3-5.2-69.7c-0.9,0.4-1.7,0.7-2.6,1.1c4.5,4.7,7.1,10.4,7.7,16.9c1,0,2,0,3,0
				c-0.3-2.9,0.1-5.2,1.5-7.8c-0.6,0.2-1.1,0.5-1.7,0.7c8,3.2,9.3,17.6,11.2,24.9c2.3,9.1,4.6,18.2,6.6,27.3
				c4.2,18.6,7.9,37.3,11.1,56.1c0.3,1.6,2.5,1.3,2.9,0c0.9-2.5,1-4.9,1.2-7.6c0.1-1.5,0.2-3,0.6-4.5c0.3-0.6,0.6-1.3,0.8-1.9
				c4.6-2.4,6.3-2,5.2,1.2c-0.6,0.8,0.1,2,0.9,2.2c2.2,0.6,3.6-0.1,5.2-1.5c0.7-0.6,1.2-1.5,1.9-2.1c1.2-1,3.9-2.1,5.6-1.7
				c3.3,0.9,3.6,6.8,3.6,9.4c0.3,11.6,0.3,23.1,0.5,34.7c0,1.9,3,1.9,3,0c-0.1-7.7-0.2-15.3-0.3-23c-0.1-5.9,0.9-13.2-1.2-18.8
				c-1.2-3-3.8-5.7-7.2-5.9c-4.2-0.2-7.2,6.8-10.3,6c0.3,0.7,0.6,1.5,0.9,2.2c2.9-3.8-1.6-8.9-5.9-7.9c-7.7,1.8-5.6,13-7.4,18.3
				c1,0,1.9,0,2.9,0c-3.6-21.3-7.9-42.6-12.9-63.6c-2.5-10.4-5.1-20.7-7.9-31c-1.7-6.3-3.7-13.1-10.3-15.7c-0.6-0.2-1.4,0.2-1.7,0.7
				c-1.7,3-2.3,5.9-1.9,9.3c0.2,1.9,3.2,1.9,3,0c-0.6-7.3-3.4-13.7-8.5-19c-1-1-2.4-0.2-2.6,1.1c-2.6,23.6-0.8,47.5,5.3,70.5
				c0.7-0.6,1.5-1.1,2.2-1.7c-2.5-1.4-5.3-0.9-7,1.5c-2.6,3.6-1.1,9.8-0.5,13.7c1.5,11.6,5.1,22.7,10.3,33.1c0.9-0.5,1.7-1,2.6-1.5
				c-1.6-2.6-4.6-3.5-7.5-2.4c-3.4,1.3-4.7,4.7-4.8,8.1c-0.3,10.3,6.7,20.8,14,27.2C312.5,980.4,314.6,978.2,313.1,977L313.1,977z"
				/>
		</g>
	</g>
	<g>
		<g>
			<path class="st0" d="M970.5,975.1c-0.8-4.8-1.2-9.5-1.1-14.4c0-1.9,0.1-3.7,0.3-5.6c0.1-1.4,0.3-2.8,0.6-4.2
				c0.3-2.8,2.1-3.5,5.2-1.9c1,0.1,2,0.3,2.9,0.4c-1.4-24.6,3.7-48.9,15.1-70.8c-0.9-0.1-1.8-0.2-2.7-0.4c0.6,1.7,1.3,3.5,1.9,5.2
				c0.6,1.6,2.8,1.3,2.9-0.4c2.2-23.7,10.7-46.3,24.4-65.8c-0.7,0.2-1.4,0.4-2.1,0.5c6.9,3.3,3.2,15.2,2.4,20.9
				c-1.2,8.1-2.3,16.2-3.5,24.2c-2.3,16.2-4.7,32.3-7,48.5c-0.3,1.9,2.5,2.7,2.9,0.8c1.1-5.6,4.8-9.8,10.4-11.5
				c-0.6-0.5-1.3-1-1.9-1.4c0.4,3.8,1.4,7.1,3.5,10.3c0.6,0.9,2,1,2.6,0c2.4-4.3,6.8-0.2,7.7,2.5c1,3,0.2,6.1-0.6,9
				c-1.5,6.1-3,12.2-4.5,18.3c-2.9,11.9-5.9,23.7-8.8,35.6c-0.5,1.9,2.4,2.7,2.9,0.8c4.6-18.6,10-37.3,13.9-56.1
				c1-4.7,1.2-10.7-3.4-13.5c-3.3-2-7.7-1.6-9.7,2c0.9,0,1.7,0,2.6,0c-1.8-2.8-2.7-5.5-3-8.8c-0.1-0.9-0.9-1.7-1.9-1.4
				c-6.5,1.9-11.1,6.9-12.5,13.6c1,0.3,1.9,0.5,2.9,0.8c2.8-19.4,5.6-38.8,8.5-58.2c1.3-8.6,3.1-17.4,3.7-26.2
				c0.3-4.9-0.5-10.4-5.3-12.7c-0.8-0.4-1.6-0.2-2.1,0.5c-14.1,19.9-22.6,43-24.9,67.3c1-0.1,2-0.3,2.9-0.4
				c-0.6-1.7-1.3-3.5-1.9-5.2c-0.4-1.1-2.1-1.6-2.7-0.4c-11.6,22.3-17,47.2-15.5,72.3c0.1,1.6,2.6,2.1,2.9,0.4
				c1.1-5.3-5.8-7.3-9-3.7c-2.7,3-2.7,7.9-2.9,11.7c-0.3,6,0.1,12,1.1,17.9C967.9,977.8,970.8,977,970.5,975.1L970.5,975.1z"/>
		</g>
	</g>
	<g>
		<g>
			<path class="st0" d="M305.3,630.8c-1.1,20.1-1.4,40.3-0.6,60.5c0.4,10.1,0.9,20.1,1.8,30.2c0.6,7.6,0.3,16.6,3.5,23.7
				c2.8,6.2,8.7,8.8,15.1,9.8c9.1,1.4,18.6,1.3,27.8,1.7c20.3,0.8,40.6,1.1,60.9,0.8c22.9-0.3,45.9-1.4,68.7-3.1
				c1.9-0.1,1.9-3.1,0-3c-37.3,2.8-74.6,3.7-112,2.8c-9.5-0.2-19-0.6-28.5-1.1c-8-0.4-20,0.8-26.4-5c-6.4-5.8-5.5-17.8-6.2-25.7
				c-0.8-9.4-1.4-18.8-1.7-28.2c-0.8-21.1-0.6-42.3,0.5-63.4C308.4,628.9,305.4,628.9,305.3,630.8L305.3,630.8z"/>
		</g>
	</g>
	<g>
		<g>
			<path class="st0" d="M307.2,631.4c62.7,1.6,125.3,3.3,188,4.9c-0.5-0.5-1-1-1.5-1.5c-2.9,37.1-5.7,74.2-8.6,111.3
				c-0.1,1.9,2.9,1.9,3,0c2.9-37.1,5.7-74.2,8.6-111.3c0.1-0.8-0.7-1.5-1.5-1.5c-62.7-1.6-125.3-3.3-188-4.9
				C305.3,628.3,305.3,631.3,307.2,631.4L307.2,631.4z"/>
		</g>
	</g>
	<g>
		<g>
			<path class="st0" d="M315,612.6c4.8,2.2,8.8,5.4,12,9.5c1.2,1.5,3.3-0.6,2.1-2.1c-3.4-4.3-7.7-7.7-12.6-10
				C314.8,609.2,313.3,611.8,315,612.6L315,612.6z"/>
		</g>
	</g>
	<g>
		<g>
			<path class="st0" d="M316.8,624.5c5.4-4.4,10.8-8.8,16.2-13.1c1.5-1.2-0.6-3.3-2.1-2.1c-5.4,4.4-10.8,8.8-16.2,13.1
				C313.2,623.6,315.3,625.7,316.8,624.5L316.8,624.5z"/>
		</g>
	</g>
	<g>
		<g>
			<path class="st0" d="M342.6,607.6c-0.6,5.5-0.2,11,1.1,16.4c0.5,1.9,3.3,1.1,2.9-0.8c-1.2-5.1-1.5-10.3-1-15.6
				C345.8,605.7,342.8,605.7,342.6,607.6L342.6,607.6z"/>
		</g>
	</g>
	<g>
		<g>
			<path class="st0" d="M345.2,609.2c5.7-0.6,11.2-0.4,16.8,0.6c1.9,0.3,2.7-2.5,0.8-2.9c-5.9-1.1-11.7-1.3-17.6-0.7
				C343.3,606.4,343.3,609.4,345.2,609.2L345.2,609.2z"/>
		</g>
	</g>
	<g>
		<g>
			<path class="st0" d="M343.6,622.6c5.5,1.8,11.3,1.8,16.8-0.1c1.8-0.6,1-3.5-0.8-2.9c-5,1.7-10.1,1.7-15.2,0.1
				C342.5,619.1,341.7,622,343.6,622.6L343.6,622.6z"/>
		</g>
	</g>
	<g>
		<g>
			<path class="st0" d="M360.9,607.6c0,4.5,0,9,0,13.5c0,1.9,3,1.9,3,0c0-4.5,0-9,0-13.5C363.9,605.7,360.9,605.7,360.9,607.6
				L360.9,607.6z"/>
		</g>
	</g>
	<g>
		<g>
			<path class="st0" d="M343.6,615c6.8,1.4,13.5,1.4,20.3-0.1c1.9-0.4,1.1-3.3-0.8-2.9c-6.2,1.4-12.5,1.4-18.7,0.1
				C342.6,611.7,341.8,614.6,343.6,615L343.6,615z"/>
		</g>
	</g>
	<g>
		<g>
			<path class="st0" d="M376.8,614.9c7.2,1.5,14.3,1.5,21.5,0c1.9-0.4,1.1-3.3-0.8-2.9c-6.7,1.3-13.3,1.3-19.9,0
				C375.7,611.6,374.9,614.5,376.8,614.9L376.8,614.9z"/>
		</g>
	</g>
	<g>
		<g>
			<path class="st0" d="M390.5,698.9c-8.9-10.1-1.9-26.2,4.5-35.7c7.5-11.2,20.1-19.7,34-18.9c4.9,0.3,9.2,1.7,9.1,7.7
				c-0.1,3-1.3,6.2-2.1,9.1c-2,7-4.8,13.4-10.1,18.5c-9.5,9.2-21.8,19-35.3,20.3c-1.9,0.2-1.9,3.2,0,3c12.9-1.3,23.2-9.1,32.9-17.1
				c5.4-4.5,9.8-9.2,12.6-15.7c2.4-5.6,5-12.5,5.1-18.6c0.3-12-15.5-11.1-23.5-8.8c-12.1,3.4-21.7,12.3-27.7,23.1
				c-5.8,10.4-10.5,25.2-1.5,35.2C389.6,702.5,391.7,700.4,390.5,698.9L390.5,698.9z"/>
		</g>
	</g>
	<g>
		<g>
			<path class="st0" d="M392.7,701.1c-0.7-0.5-1.4-1-2.1-1.5c-0.4-0.3-1.1-0.2-1.5,0c-5.3,2.8-9.5,8.1-10.1,14.3
				c-0.5,5.3,2.7,10,8.5,9.1c5.4-0.9,11.1-5.7,11.5-11.4c0.3-5.3-4.2-9.7-9.4-8.9c-1.9,0.3-1.1,3.2,0.8,2.9
				c6.6-0.9,6.4,7.6,3.2,10.9c-2.5,2.6-8.3,6-10.9,1.8c-1.7-2.7-0.1-7.1,1.3-9.6c0.9-1.5,2-2.9,3.3-4.1c1.8-1.6,2.2-2.1,4.1-0.8
				C392.8,704.8,394.3,702.2,392.7,701.1L392.7,701.1z"/>
		</g>
	</g>
	<g>
		<g>
			<path class="st0" d="M577.7,632.3c-0.3,19.5-0.5,39.1-0.5,58.6c0,9.6,0,19.2,0,28.8c0,4.6,0,9.3,0,13.9c0,4.4-0.6,9.2,0.3,13.5
				c1.1,5.7,6,7.2,11.2,7.7c9.4,0.9,19,1.2,28.5,1.6c19.5,0.9,39.1,1.3,58.6,1.2c22.2-0.1,44.4-0.8,66.6-2c1.9-0.1,1.9-3.1,0-3
				c-35.7,2-71.5,2.6-107.3,1.5c-8.9-0.3-17.9-0.6-26.8-1.1c-4.3-0.2-8.6-0.5-12.9-0.8c-3.3-0.2-11.1,0.4-13.5-2.7
				c-2.7-3.5-1.6-10.7-1.6-15c0-4.6,0-9.3-0.1-13.9c0-8.9,0-17.9,0-26.8c0.1-20.5,0.2-41,0.5-61.6
				C580.8,630.4,577.8,630.4,577.7,632.3L577.7,632.3z"/>
		</g>
	</g>
	<g>
		<g>
			<path class="st0" d="M592.3,631.7c33.2,1.5,66.5,3,99.7,4.6c8.2,0.4,16.5,0.8,24.7,1.1c4.3,0.2,8.6,0.4,12.8,0.6
				c3.4,0.2,11.8-1,13.4,2.8c1.2,2.8-0.1,8.2-0.3,11.2c-0.2,4.3-0.5,8.5-0.7,12.8c-0.5,8.2-0.9,16.3-1.4,24.5
				c-1.1,19-2.2,37.9-3.3,56.9c-0.1,1.9,2.9,1.9,3,0c1-18,2.1-36,3.1-54c0.5-8.8,1-17.7,1.5-26.5c0.3-4.6,0.5-9.2,0.8-13.7
				c0.2-3.5,0.9-7.3,0.4-10.8c-0.8-5.7-5.8-5.7-10.6-5.9c-9.2-0.4-18.4-0.8-27.6-1.3c-18.1-0.8-36.2-1.7-54.3-2.5
				c-20.4-0.9-40.8-1.9-61.2-2.8C590.3,628.6,590.3,631.6,592.3,631.7L592.3,631.7z"/>
		</g>
	</g>
	<g>
		<g>
			<path class="st0" d="M582.4,614.2c5.9,0.5,11.1,3.8,14.2,8.9c1,1.7,3.6,0.1,2.6-1.5c-3.6-6-9.7-9.8-16.7-10.4
				C580.5,611,580.5,614,582.4,614.2L582.4,614.2z"/>
		</g>
	</g>
	<g>
		<g>
			<path class="st0" d="M585.9,624.5c5.1-3.7,10.1-7.7,14.8-12c1.4-1.3-0.7-3.4-2.1-2.1c-4.5,4.1-9.2,7.9-14.1,11.5
				C582.8,623.1,584.3,625.7,585.9,624.5L585.9,624.5z"/>
		</g>
	</g>
	<g>
		<g>
			<path class="st0" d="M610.7,604.8c-0.9,5.2-1.2,10.5-0.8,15.8c0.1,1.9,3.1,1.9,3,0c-0.4-5-0.2-10,0.7-15
				C613.9,603.7,611,602.9,610.7,604.8L610.7,604.8z"/>
		</g>
	</g>
	<g>
		<g>
			<path class="st0" d="M610.9,621.9c6.7,1.5,13.3,0.7,19.5-2.1c1.8-0.8,0.2-3.4-1.5-2.6c-5.5,2.5-11.4,3.1-17.2,1.8
				C609.8,618.6,609,621.5,610.9,621.9L610.9,621.9z"/>
		</g>
	</g>
	<g>
		<g>
			<path class="st0" d="M611.3,605.9c6-0.7,12-1,18.1-1.1c1.9,0,1.9-3,0-3c-6,0.1-12.1,0.4-18.1,1.1
				C609.4,603.1,609.4,606.1,611.3,605.9L611.3,605.9z"/>
		</g>
	</g>
	<g>
		<g>
			<path class="st0" d="M630.6,603.9c-1.4,5.8-2,11.6-1.8,17.6c0.1,1.9,3.1,1.9,3,0c-0.2-5.7,0.3-11.3,1.7-16.8
				C633.9,602.8,631,602,630.6,603.9L630.6,603.9z"/>
		</g>
	</g>
	<g>
		<g>
			<path class="st0" d="M610.9,612.2c6.5,0.9,12.9,1.2,19.4,0.7c1.9-0.1,1.9-3.1,0-3c-6.2,0.4-12.4,0.2-18.6-0.6
				C609.8,609,609,611.9,610.9,612.2L610.9,612.2z"/>
		</g>
	</g>
	<g>
		<g>
			<path class="st0" d="M645.6,612.5c6.9,0.7,13.9,1.5,20.8,2.2c1.9,0.2,1.9-2.8,0-3c-6.9-0.7-13.9-1.5-20.8-2.2
				C643.7,609.3,643.7,612.3,645.6,612.5L645.6,612.5z"/>
		</g>
	</g>
	<g>
		<g>
			<path class="st0" d="M613.5,668.1c8.5,1,16.8,0,24.9-2.8c1.8-0.6,1-3.5-0.8-2.9c-7.9,2.8-15.8,3.6-24.1,2.7
				C611.6,664.8,611.6,667.8,613.5,668.1L613.5,668.1z"/>
		</g>
	</g>
	<g>
		<g>
			<path class="st0" d="M643.6,677c7-3,13.6-6.6,19.8-11c1.6-1.1,0.1-3.7-1.5-2.6c-6.2,4.3-12.8,8-19.8,11
				C640.4,675.1,641.9,677.7,643.6,677L643.6,677z"/>
		</g>
	</g>
	<g>
		<g>
			<path class="st0" d="M640.9,677.6c2.4,4.6,4.7,9.3,6.9,14c2.4,5.3,5.6,10.9,5.3,16.8c-0.6,10.6-4.4,21.7-8.4,31.5
				c-0.7,1.8,2.2,2.6,2.9,0.8c4.2-10.2,8.9-22.7,8.6-33.9c-0.2-4.8-2.3-9.1-4.2-13.4c-2.6-5.9-5.5-11.7-8.4-17.4
				C642.6,674.4,640.1,675.9,640.9,677.6L640.9,677.6z"/>
		</g>
	</g>
	<g>
		<g>
			<path class="st0" d="M661.2,666.1c3.9,7,7.7,14,11.6,21.1c4.3,7.8,7.4,14.3,4.6,23.3c-2.2,7.2-5.6,14.3-9.5,20.8
				c-3.2,5.4-13.1,17.7-19,7.8c-1-1.7-3.6-0.1-2.6,1.5c3.3,5.5,10.5,6,15.6,2.6c7.5-4.9,11.8-15.5,15.2-23.3
				c3.6-8.4,6.5-16.7,2.8-25.6c-4.3-10.3-10.7-20-16.1-29.7C662.8,662.9,660.2,664.4,661.2,666.1L661.2,666.1z"/>
		</g>
	</g>
	<g>
		<g>
			<path class="st0" d="M673.9,688.9c-8.6,8.3-7.2,21.4,2.8,27.8c1.6,1,3.1-1.6,1.5-2.6c-8.4-5.3-9.4-16.2-2.2-23.1
				C677.4,689.7,675.3,687.6,673.9,688.9L673.9,688.9z"/>
		</g>
	</g>
	<g>
		<g>
			<path class="st0" d="M611.7,668.2c1.2,10,2.5,19.9,3.6,29.9c1.1,10-1.5,17.6-6.5,26.2c-1.9,3.3-3.9,6.5-5.5,9.9
				c-1.1,2.2-2.9,5.2-1.6,7.7c2.2,4.5,9.2,2.3,12.7,1.3c13.6-3.9,25.7-12.7,30.6-26.4c2.4-6.8,2.9-14.1,1.5-21.1
				c-1.9-9.3-6.6-17.8-6.1-27.6c0.1-1.9-2.9-1.9-3,0c-0.8,14.5,9,27.1,6.3,41.8c-2.7,14.8-14,25.1-27.9,29.7c-1.5,0.5-3,0.9-4.5,1.3
				c-2.9,0.7-3.9,1.6-5.2-1.5c-1.2-2.8-0.5-3.3,0.9-5.8c0.9-1.7,1.8-3.3,2.8-4.9c3-5.1,6.2-10.3,7.8-16.1c1.9-6.6,0.8-13.3,0-20
				c-1-8.1-2-16.2-2.9-24.3C614.5,666.3,611.5,666.3,611.7,668.2L611.7,668.2z"/>
		</g>
	</g>
	<g>
		<g>
			<path class="st0" d="M640.8,691.8c-10.1,9.1-11.5,23.9-3.1,34.7c1.2,1.5,3.8,0,2.6-1.5c-7.5-9.8-6.5-22.7,2.7-31.1
				C644.3,692.6,642.2,690.5,640.8,691.8L640.8,691.8z"/>
		</g>
	</g>
	<g>
		<g>
			<path class="st0" d="M796.1,641.6c-1.6,17-2.7,34-3.4,51c-0.3,8.5-0.5,17-0.6,25.6c-0.1,7.7-0.8,16.1,0.2,23.8
				c0.7,5.5,4.6,7.5,9.7,8.2c7.7,1,15.6,1.3,23.4,1.7c17.4,1,34.9,1.3,52.3,1c19.4-0.3,38.8-1.5,58.1-3.4c1.9-0.2,1.9-3.2,0-3
				c-40,3.9-80.2,4.6-120.3,1.8c-5-0.3-10.5-0.2-15.4-1.4c-6.5-1.7-5-9.6-5.1-14.8c-0.1-9.8,0-19.7,0.3-29.5
				c0.5-20.3,1.8-40.6,3.7-60.8C799.2,639.6,796.2,639.7,796.1,641.6L796.1,641.6z"/>
		</g>
	</g>
	<g>
		<g>
			<path class="st0" d="M808.6,643.2c36-1,72.1-0.5,108.1,1.6c3.8,0.2,8,0,11.7,1.1c5.9,1.8,4.6,8.5,4.7,13.3c0,8.9,0,17.8,0,26.7
				c0,18.1-0.1,36.2-0.2,54.3c0,1.9,3,1.9,3,0c0.1-19.8,0.2-39.5,0.2-59.3c0-9.6,0.7-19.5,0-29c-0.4-5.9-3.9-8.6-9.6-9.4
				c-9-1.3-18.5-1.2-27.6-1.6c-9.9-0.4-19.8-0.7-29.8-0.9c-20.2-0.4-40.4-0.3-60.5,0.3C806.6,640.3,806.6,643.3,808.6,643.2
				L808.6,643.2z"/>
		</g>
	</g>
	<g>
		<g>
			<path class="st0" d="M802.1,625.7c5.6,4,11.4,7.7,17.4,11.1c1.7,1,3.2-1.6,1.5-2.6c-6-3.4-11.8-7.1-17.4-11.1
				C802.1,622,800.6,624.6,802.1,625.7L802.1,625.7z"/>
		</g>
	</g>
	<g>
		<g>
			<path class="st0" d="M803.5,634.8c4.9-2.4,9.8-4.8,14.8-7.1c1.7-0.8,0.2-3.4-1.5-2.6c-4.9,2.4-9.8,4.8-14.8,7.1
				C800.3,633.1,801.8,635.7,803.5,634.8L803.5,634.8z"/>
		</g>
	</g>
	<g>
		<g>
			<path class="st0" d="M830.9,618.1c-0.3,3.4-0.7,6.8-1,10.2c-0.2,2-0.9,4.7,0.9,6.2c1.6,1.4,4.4,0.7,6.3,0.5
				c3.6-0.3,7.1-0.6,10.7-0.9c1.9-0.2,1.9-3.2,0-3c-2.5,0.2-5,0.4-7.5,0.7c-1.6,0.1-5.3,1.1-6.7,0.6c-2.1-0.8,0.1-11.9,0.4-14.2
				C834.1,616.2,831.1,616.2,830.9,618.1L830.9,618.1z"/>
		</g>
	</g>
	<g>
		<g>
			<path class="st0" d="M830,616.7c4.8,1.2,9.5,1.4,14.4,0.7c0.9-0.1,2.4-0.7,3.4-0.4c2.6,1,1.8,3.8,1.6,5.7c-0.2,3-0.5,6.1-0.7,9.1
				c-0.2,1.9,2.8,1.9,3,0c0.3-4,0.9-8.1,1-12.1c0.1-2.1-0.3-4.1-2.3-5.1c-1.9-1-4.1-0.5-6-0.2c-4.7,0.7-9,0.6-13.6-0.6
				C828.9,613.3,828.1,616.2,830,616.7L830,616.7z"/>
		</g>
	</g>
	<g>
		<g>
			<path class="st0" d="M830.9,621.2c5.3,1.8,10.8,2.2,16.4,1.2c1.9-0.3,1.1-3.2-0.8-2.9c-5,0.9-9.9,0.5-14.8-1.2
				C829.9,617.7,829.1,620.6,830.9,621.2L830.9,621.2z"/>
		</g>
	</g>
	<g>
		<g>
			<path class="st0" d="M862.9,624.1c7.2,2.5,14.7,2.5,21.9,0.1c1.8-0.6,1-3.5-0.8-2.9c-6.8,2.2-13.6,2.2-20.3-0.1
				C861.9,620.6,861.1,623.5,862.9,624.1L862.9,624.1z"/>
		</g>
	</g>
	<g>
		<g>
			<path class="st0" d="M840,664.5c17.8,6.8,36.9-1.2,55.1,3c1.9,0.4,2.7-2.5,0.8-2.9c-18.2-4.2-37.3,3.8-55.1-3
				C839,660.9,838.2,663.8,840,664.5L840,664.5z"/>
		</g>
	</g>
	<g>
		<g>
			<path class="st0" d="M840.1,662.7c-2.1,7.1-4.1,14.2-6.2,21.2c-2,6.9-5.1,14.2-6.2,21.2c-0.6,3.7,1.3,4.4,4.8,5.1
				c7.3,1.5,14.7,2.8,22.1,4.3c0.6,0.1,1.4-0.1,1.7-0.7c2.5-5.1,4.9-10.2,7.4-15.3c0.8-1.7-1.8-3.3-2.6-1.5
				c-2.5,5.1-4.9,10.2-7.4,15.3c0.6-0.2,1.1-0.5,1.7-0.7c-5.5-1.1-11-2.1-16.6-3.2c-1.9-0.4-7.4-0.5-8.2-2.5c-0.5-1.4,2-7,2.4-8.3
				c3.3-11.4,6.7-22.8,10-34.2C843.6,661.6,840.7,660.8,840.1,662.7L840.1,662.7z"/>
		</g>
	</g>
	<g>
		<g>
			<path class="st0" d="M853.9,693.4c4,3.9,9.3,6,14.9,5.8c1.9-0.1,1.9-3.1,0-3c-4.9,0.2-9.3-1.5-12.8-4.9
				C854.7,690,852.6,692.1,853.9,693.4L853.9,693.4z"/>
		</g>
	</g>
	<g>
		<g>
			<path class="st0" d="M895.6,669.3c1.2,13.4,2.1,26.9,2.7,40.4c0.1,1.9,3.1,1.9,3,0c-0.6-13.5-1.5-27-2.7-40.4
				C898.4,667.4,895.4,667.4,895.6,669.3L895.6,669.3z"/>
		</g>
	</g>
	<g>
		<g>
			<path class="st0" d="M864.9,697.8c0.3,4.8-1.2,14.6,5.1,15.9c4.3,0.9,9.7-0.3,14-0.8c4.6-0.6,9.1-1.5,13.6-2.7
				c1.9-0.5,1.1-3.4-0.8-2.9c-6.7,1.7-13.5,2.9-20.4,3.4c-3.6,0.3-6.6,0.6-7.8-3.5c-0.8-2.7-0.5-6.6-0.7-9.3
				C867.8,695.9,864.8,695.8,864.9,697.8L864.9,697.8z"/>
		</g>
	</g>
	<g>
		<g>
			<path class="st0" d="M830.3,701.8c9.7-0.2,18.9,2.2,27.3,7c1.7,1,3.2-1.6,1.5-2.6c-8.9-5.1-18.6-7.6-28.8-7.4
				C828.4,698.9,828.4,701.9,830.3,701.8L830.3,701.8z"/>
		</g>
	</g>
	<g>
		<g>
			<path class="st0" d="M871,703.2c1.6,1.1,3.3,1.3,5,0.8c0.6-0.1,1.2-0.2,1.8-0.2c2.1-0.3,4.3-0.5,6.4-0.8c4-0.5,8-1,11.9-1.5
				c1.9-0.2,1.9-3.2,0-3c-7.8,1-16.5,1.1-24.1,3c-2.3,0.6-4.1,2.7-1.6,4.5c0.5,0.3,1.1,0.2,1.5,0c0.1-0.1,0.3-0.1,0.4-0.2
				C874.3,704.9,872.7,702.3,871,703.2L871,703.2z"/>
		</g>
	</g>
	<g>
		<g>
			<path class="st0" d="M844.6,665.4c-0.3,2.1-0.6,4.3-1,6.4c-0.3,1.9,2.6,2.7,2.9,0.8c0.3-2.1,0.6-4.3,1-6.4
				C847.8,664.3,844.9,663.4,844.6,665.4L844.6,665.4z"/>
		</g>
	</g>
	<g>
		<g>
			<path class="st0" d="M859,665.3c-0.3,2.1-0.6,4.3-1,6.4c-0.3,1.9,2.6,2.7,2.9,0.8c0.3-2.1,0.6-4.3,1-6.4
				C862.2,664.2,859.3,663.4,859,665.3L859,665.3z"/>
		</g>
	</g>
	<g>
		<g>
			<path class="st0" d="M870.2,666.3c-0.5,2.8-0.4,5.5,0.6,8.2c0.7,1.8,3.6,1,2.9-0.8c-0.8-2.2-1-4.3-0.6-6.6
				C873.5,665.2,870.6,664.4,870.2,666.3L870.2,666.3z"/>
		</g>
	</g>
	<g>
		<g>
			<path class="st0" d="M886.6,664.8c0,2.1,0,4.3,0,6.4c0,1.9,3,1.9,3,0c0-2.1,0-4.3,0-6.4C889.6,662.9,886.6,662.9,886.6,664.8
				L886.6,664.8z"/>
		</g>
	</g>
</g>
<g id="dress">
	<path d="M763.3,501.2c5,6.3,13.3,15,25.9,19.7c20,7.4,28.9-3.4,57.4-0.8c27.1,2.5,35.1,13.7,50.7,8c11.9-4.4,19-15.3,23.2-24.1
		c-9.8-8.3-28.2-21.6-54.6-27C812.6,465.9,770.8,495.6,763.3,501.2z"/>
	<path class="st1" d="M844.9,289.3c-3.2,5.3-5.5,9.9-7.1,13.3c-3.3,7-7.2,15.3-9.5,26.5c-0.9,4.2-1.3,7.7-1.5,9.9
		c5.3-1.1,11.4-1.9,18.2-2.1c20-0.5,36.1,5.2,46.2,9.8c1.7-2.2,4-5.4,6-9.7c2.2-4.5,3.5-9,5.1-19.2c1-6.1,2-14,2.7-23.5
		c2.7,0.9,7.1,2,12.5,2.4c5.8,0.4,9.5-0.2,10.4,1.6c1,1.9-2.7,3.8-4,8.7c-1.6,6.3,3.7,9.3,1.9,14.3c-1.4,3.8-4.5,2.6-7.3,7.4
		c-2.2,3.9-0.8,5.6-3.3,11.6c-1.2,2.7-2.2,5.1-4.2,6.9c-5.4,4.7-14.4,1.9-16.1,1.4c1,2.3,2.1,5.8,2,9.9c0,1.5-0.2,2.8-2.2,10.5
		c-1.2,4.6-1.8,7-2.8,10.4c-0.9,3.3-2.2,7.6-3.9,12.6c-9.4,1.3-17.3,1.2-23,0.9c-7-0.4-13.1-0.8-20.7-3.4c-7.6-2.6-13.2-6.3-16.8-9
		c-1.5-4.4-3.1-10.3-3.5-17.4c-0.7-10.3,1.2-18.7,2.9-24c-5.8,2.6-8.4,2-9.8,1c-2.1-1.7-0.4-4.3-3-9.6c-1.5-3.1-3-4-3.7-7.3
		c-0.4-2-0.3-3.7-0.2-4.7c0.6-7,4.8-8,5-13.5c0.1-3.8-1.8-4.9-0.7-8c0.6-1.6,1.4-2.2,3.8-4.6c5.1-5,7.7-7.6,9.1-11.1
		c0.6-1.4,1.2-3.5,1.1-6.4C833.9,279.7,839.4,284.5,844.9,289.3z"/>
	<path class="st1" d="M823.3,393.3c-1.4,1.9-3.3,4.5-5.5,7.6c-11.6,16.5-21,32-28.6,45.8c-8.3,15-17.3,33.2-25.9,54.4
		c3-2.5,7.7-5.6,13.4-5.3c2.7,0.1,5.8,1,17.1,9.9c11.8,9.3,13.2,12.1,19.2,13.7c1.4,0.4,7.6,2,14.7-0.2c7.7-2.3,8.1-6.5,18.1-13
		c7.7-5,12.7-8.2,18.7-7.4c5.3,0.8,5.8,3.9,17.8,10.8c5.9,3.4,8.8,5.1,12.1,5.7c3.2,0.6,12.2,1.6,24.9-9.2
		c-1.4-4.8-3.7-12.1-6.7-20.8c-5.6-16.6-9.5-25.6-13.1-35.5c-3.7-10.2-8.6-25-13-44c-3.4,1.4-8.7,3.1-15.2,3.1
		c-6.8,0.1-11.8-1.6-18.8-4.2C844.4,401.9,834.5,398.1,823.3,393.3z"/>
	<path class="st2" d="M827.4,380.4c-1.4,4.3-2.8,8.6-4.2,12.9c2.6,2.2,5.7,4.5,9.3,6.6c13.8,7.8,27.4,8,35.1,8c4.5,0,11-0.3,18.7-2
		c0.5-4.7,1-9.3,1.4-14c-4.6,0.9-11,1.8-18.6,1.7c-11.8-0.3-20.4-3-22.5-3.6C838.7,387.4,832.3,383.8,827.4,380.4z"/>
	<g>
		<g>
			<path d="M715.4,232.9c-5.8,105.5-3.6,211.4,6.4,316.6c1,10.7,0.7,23.2,4.7,33.4c3.4,8.7,11,12.5,19.6,14.9
				c23.6,6.4,48.2,8.9,72.5,10.1c51.3,2.4,103.1,0.2,154.3-3.8c58-4.5,115.7-12.2,172.8-23.2c1.9-0.4,1.1-3.3-0.8-2.9
				c-98.9,19-199.8,28.6-300.5,27.6c-25.3-0.3-50.6-1.5-75.5-5.9c-5.6-1-11.2-2.1-16.8-3.4c-5.5-1.3-11.4-2.5-16.1-5.7
				c-10.1-6.8-9.3-22.3-10.3-33c-5-50.6-8.3-101.4-9.6-152.2c-1.5-57.4-0.7-114.9,2.4-172.3C718.5,230.9,715.5,231,715.4,232.9
				L715.4,232.9z"/>
		</g>
	</g>
	<g>
		<g>
			<path d="M728.4,223.1c89.1-8.2,178.5-12,267.9-11.4c21.9,0.2,43.7,0.6,65.6,1.3c11.2,0.3,22.3,0.6,33.5,1.3
				c5.6,0.3,11.6,1,16,4.8c4,3.4,6.3,8.3,8.1,13.1c7.7,19.7,9.1,41.3,10.4,62.2c1.4,22.1,2.7,44.1,4.1,66.2
				c3.1,50.2,6.2,100.4,9.2,150.6c0.1,1.9,3.1,1.9,3,0c-2.8-46.2-5.7-92.5-8.5-138.7c-1.4-22.8-2.8-45.6-4.2-68.4
				c-1.3-21.1-2.1-42.6-8-63.1c-2.3-7.9-5-17-11-23.1c-6.1-6.1-14.8-6.4-22.9-6.8c-23.2-1-46.3-1.7-69.5-2
				c-46-0.8-92.1-0.3-138.1,1.2c-52,1.8-103.9,5.1-155.7,9.9C726.5,220.3,726.5,223.3,728.4,223.1L728.4,223.1z"/>
		</g>
	</g>
	<g>
		<g>
			<path d="M730.9,178.4c16,8,30.3,18.5,42.6,31.5c1.3,1.4,3.5-0.7,2.1-2.1c-12.5-13.1-27-23.9-43.2-31.9
				C730.7,174.9,729.2,177.5,730.9,178.4L730.9,178.4z"/>
		</g>
	</g>
	<g>
		<g>
			<path d="M736.3,214.5c15.5-13.4,29.8-28,42.9-43.8c1.2-1.5-0.9-3.6-2.1-2.1c-13.1,15.8-27.4,30.4-42.9,43.8
				C732.8,213.6,734.9,215.8,736.3,214.5L736.3,214.5z"/>
		</g>
	</g>
	<g>
		<g>
			<path d="M787.7,172.9c-0.9,8.2-1.6,16.8-0.6,25c0.6,4.9,2.6,8.2,7.7,8.9c7.6,1,16.1-0.3,23.8-0.5c2.8-0.1,12.6,1.5,12.3-3.4
				c-0.1-1.9-3.1-1.9-3,0c0,0.2-28.9,1.1-31.6,1c-7.8-0.3-6.6-9.7-6.6-15.3c0-5.3,0.4-10.5,0.9-15.8
				C790.9,171,787.9,171,787.7,172.9L787.7,172.9z"/>
		</g>
	</g>
	<g>
		<g>
			<path d="M789.9,173.5c14.5-1.3,28.9-1.1,43.3,0.8c-0.5-0.5-1-1-1.5-1.5c-0.4,9.7-0.9,19.5-1.3,29.2c-0.1,1.9,2.9,1.9,3,0
				c0.4-9.7,0.9-19.5,1.3-29.2c0-0.9-0.7-1.4-1.5-1.5c-14.4-1.9-28.9-2.1-43.3-0.8C788,170.7,787.9,173.7,789.9,173.5L789.9,173.5z"
				/>
		</g>
	</g>
	<g>
		<g>
			<path d="M788.9,184.9c14.8,0.3,29.5,0.6,44.3,0.8c1.9,0,1.9-3,0-3c-14.8-0.3-29.5-0.6-44.3-0.8C787,181.9,787,184.9,788.9,184.9
				L788.9,184.9z"/>
		</g>
	</g>
	<g>
		<g>
			<path d="M846.3,188.5c20.4,0.7,40.8,0.6,61.3-0.4c1.9-0.1,1.9-3.1,0-3c-20.4,1-40.8,1.1-61.3,0.4
				C844.4,185.4,844.4,188.4,846.3,188.5L846.3,188.5z"/>
		</g>
	</g>
	<g>
		<g>
			<path class="st0" d="M730.5,239.9c30.4-2.4,60.9-3.2,91.4-2.5c1.9,0,1.9-3,0-3c-30.5-0.7-61,0.1-91.4,2.5
				C728.5,237.1,728.5,240.1,730.5,239.9L730.5,239.9z"/>
		</g>
	</g>
	<g>
		<g>
			<path class="st0" d="M988.6,228.5c42.1,0.5,84.2,1.8,126.2,4.1c1.9,0.1,1.9-2.9,0-3c-42-2.3-84.1-3.7-126.2-4.1
				C986.7,225.5,986.7,228.5,988.6,228.5L988.6,228.5z"/>
		</g>
	</g>
	<g>
		<g>
			<path class="st0" d="M1055.5,244.2c14.7-0.9,29.3-0.4,43.9,1.7c1.9,0.3,2.7-2.6,0.8-2.9c-14.8-2.1-29.7-2.8-44.7-1.9
				C1053.6,241.3,1053.6,244.3,1055.5,244.2L1055.5,244.2z"/>
		</g>
	</g>
	<g>
		<g>
			<path d="M845,288.5c-11,14.8-17.7,32.1-19.7,50.4c-0.2,1.9,2.8,1.9,3,0c1.9-17.8,8.6-34.6,19.3-48.9
				C848.7,288.5,846.1,287,845,288.5L845,288.5z"/>
		</g>
	</g>
	<g>
		<g>
			<path d="M845.7,288c-6.3-3.8-11.6-8.4-16.2-14.1c-0.8-1-2.6-0.2-2.6,1.1c0.5,11.5-13.3,14.5-15.3,24.6c-0.8,3.9,3.5,6.3,2,10
				c-1.2,2.9-3.6,5.2-4.8,8.2c-0.8,2.1-1,4.2,0.2,6.2c1.5,2.4,3.3,3.8,3.5,7c0.1,1.9-0.4,3.8,0.1,5.7c1.5,5.6,8.5,7.7,13.1,4.5
				c1.6-1.1,0.1-3.7-1.5-2.6c-2.3,1.6-5.4,1.6-7.4-0.5c-2-2-1.3-4.6-1.3-7.1c0.1-3-0.6-4.5-2.3-6.9c-1.2-1.6-2.3-2.4-1.8-4.6
				c0.3-1.4,1.5-2.9,2.2-4c1.2-1.8,2.5-3.6,3.2-5.7c0.5-1.7,0.4-2.9,0-4.6c-0.9-3.8-2-6.4,0.7-9.6c1.1-1.3,2.3-2.5,3.5-3.6
				c4.7-4.7,9.3-9.7,9-16.8c-0.9,0.4-1.7,0.7-2.6,1.1c4.7,5.9,10.3,10.7,16.8,14.6C845.8,291.6,847.3,289,845.7,288L845.7,288z"/>
		</g>
	</g>
	<g>
		<g>
			<path d="M827.5,341.4c20.8-5.2,44-5.3,62.2,7.4c1.6,1.1,3.1-1.5,1.5-2.6c-18.9-13.1-43-13-64.5-7.7
				C824.8,338.9,825.6,341.8,827.5,341.4L827.5,341.4z"/>
		</g>
	</g>
	<g>
		<g>
			<path d="M891.3,347.6c6.5-4.8,8.4-12.8,10.4-20.3c2.6-10,4-20.3,4.6-30.7c0.1-1.9-2.9-1.9-3,0c-0.5,8.8-1.6,17.6-3.6,26.3
				c-1.7,7.4-3.4,17.3-9.9,22.1C888.3,346.1,889.8,348.7,891.3,347.6L891.3,347.6z"/>
		</g>
	</g>
	<g>
		<g>
			<path d="M904.3,295.6c5.7,3.3,11.8,2.1,18,2.8c1.3,0.1,2.6,0.4,3.9,0.8c1.4,1,1.3,1.8-0.1,2.4c-0.3,0.8-1.8,2-2.2,2.7
				c-1.5,2.2-2.6,5-2.3,7.8c0.4,3.8,4.5,7.4,1.5,11.1c-1.7,2.1-4.3,3-5.9,5.3c-3.4,5-1.9,19-10.5,18.3c-1.9-0.2-1.9,2.8,0,3
				c7.6,0.6,9.7-7.5,10.9-13.4c0.6-2.8,1.2-5.5,3.3-7.6c1.3-1.3,3-2.2,4.3-3.5c2-2,2.6-4.3,1.8-7c-0.5-1.8-1.8-3.3-2.3-5.1
				c-1-4,1.3-7.2,4-9.9c1.5-1.5,3.1-3.1,1.4-5.2c-1.8-2.2-6-2.5-8.6-2.7c-5.4-0.4-10.9,0.5-15.7-2.3
				C904.1,292,902.6,294.6,904.3,295.6L904.3,295.6z"/>
		</g>
	</g>
	<g>
		<g>
			<path d="M890.8,348.1c5.9,1.4,11.9,1.4,17.8,0c1.9-0.4,1.1-3.3-0.8-2.9c-5.4,1.2-10.8,1.2-16.2,0
				C889.7,344.8,888.9,347.7,890.8,348.1L890.8,348.1z"/>
		</g>
	</g>
	<g>
		<g>
			<path d="M824.5,340.4c-3.3,13.4-2.8,27.2,1.6,40.3c0.6,1.8,3.5,1,2.9-0.8c-4.2-12.6-4.8-25.8-1.6-38.7
				C827.9,339.4,825,338.6,824.5,340.4L824.5,340.4z"/>
		</g>
	</g>
	<g>
		<g>
			<path d="M826.2,381.2c4.6,8.1,17.9,10.2,26.1,11.7c11.3,2.1,22.8,2.1,34.1,0.3c1.9-0.3,1.1-3.2-0.8-2.9
				c-10.2,1.6-20.5,1.7-30.7,0c-4.5-0.7-8.9-1.8-13.2-3.1c-4.7-1.5-10.3-2.9-12.9-7.5C827.8,378,825.2,379.5,826.2,381.2
				L826.2,381.2z"/>
		</g>
	</g>
	<g>
		<g>
			<path d="M893.6,349.3c4,6.5,0.7,15-1,21.7c-1.8,6.9-3.9,13.8-6.1,20.6c-0.6,1.8,2.3,2.6,2.9,0.8c2.9-8.6,5.4-17.4,7.5-26.3
				c1.5-6.2,2.9-12.6-0.7-18.3C895.2,346.1,892.6,347.6,893.6,349.3L893.6,349.3z"/>
		</g>
	</g>
	<g>
		<g>
			<path d="M822.7,393.6c4.6,8.7,17.2,10.3,25.7,12.5c12,3,24.3,4.7,36.6,2.4c1.9-0.4,1.1-3.3-0.8-2.9c-11.1,2.1-22.2,0.6-33.1-2
				c-8-1.9-21.6-3.4-25.8-11.5C824.4,390.3,821.8,391.8,822.7,393.6L822.7,393.6z"/>
		</g>
	</g>
	<g>
		<g>
			<path d="M822,392.6c-24.4,33.5-44.6,69.8-60.2,108.2c-0.7,1.6,1.9,2.5,2.7,1.2c4.9-7.4,15.5-5.1,21.7-0.8
				c6.9,4.8,11.7,12.2,18.9,16.6c6.2,3.8,13.7,5,20.7,3.5c7.2-1.5,12.5-5.9,17.7-10.9c5.9-5.7,12.4-12.2,21.4-9.8
				c7.5,2,13.1,8.5,19.5,12.5c11.7,7.2,27,4.9,35.7-5.8c1.2-1.5-0.9-3.6-2.1-2.1c-4.4,5.4-10.6,8.7-17.6,9.2
				c-7.1,0.5-13-2.5-18.6-6.6c-8.1-6-16.7-13.6-27.4-9.3c-11.4,4.6-16.8,17.4-29.4,20c-8.3,1.7-16.2-1-22.5-6.3
				c-4.8-4-8.7-8.9-13.6-12.6c-7.7-5.9-20.9-8.5-27.1,0.9c0.9,0.4,1.8,0.8,2.7,1.2c15.5-38.1,35.6-74.2,59.9-107.5
				C825.7,392.5,823.1,391,822,392.6L822,392.6z"/>
		</g>
	</g>
	<g>
		<g>
			<path d="M885,406.3c8.7,33.7,20.1,66.5,34.1,98.4c0.8,1.8,3.4,0.2,2.6-1.5c-13.9-31.6-25.2-64.2-33.8-97.6
				C887.4,403.7,884.5,404.4,885,406.3L885,406.3z"/>
		</g>
	</g>
	<g>
		<g>
			<path class="st0" d="M732,323.8c5.3-5.2,11.9,1.4,16.6,4.1c3.5,2,7.6,3.3,11.7,3.3c3.8-0.1,7.2-1.5,10.4-3.4
				c4.5-2.7,11.3-7.4,15.7-1.9c1.2,1.5,3.3-0.6,2.1-2.1c-8-9.9-19.6,4.3-28.3,4.5c-8,0.2-12.4-5.9-19.3-8.4c-3.9-1.4-8-1-11,1.9
				C728.5,323,730.6,325.2,732,323.8L732,323.8z"/>
		</g>
	</g>
	<g>
		<g>
			<path class="st0" d="M969.1,334.4c9.8-8.9,23.4,0,34.1,2c10,1.9,20.4,0.7,29.8-3.3c5.2-2.3,9.9-5.7,15.3-7.6
				c6.5-2.2,11.8-0.1,18,2c9.8,3.3,19.9,2.6,29.1-2c1.7-0.9,0.2-3.4-1.5-2.6c-6.2,3-12.9,4.3-19.8,3.4c-6-0.8-11.4-4-17.4-4.8
				c-10.4-1.3-18.7,6.8-27.9,10.1c-12.3,4.4-24,2.6-36.1-1.4c-8.6-2.8-18.3-4.6-25.6,2C965.5,333.6,967.6,335.7,969.1,334.4
				L969.1,334.4z"/>
		</g>
	</g>
	<g>
		<g>
			<path class="st0" d="M977.5,365.1c10.9-2.7,22-3.8,33.2-3.2c5.8,0.3,11.6,1.1,17.3,2.3c4.9,1,9.9,2.6,15,2.3
				c9.7-0.6,16.7-8.3,26.7-8.6c9.4-0.2,18.5,2.3,27.8,0.6c1.9-0.3,1.1-3.2-0.8-2.9c-9.9,1.8-19.6-1.5-29.5-0.6
				c-10.4,0.9-17.9,9.5-28.6,8.3c-10.4-1.2-20.2-4.2-30.8-4.5c-10.5-0.3-21,0.9-31.2,3.4C974.9,362.7,975.7,365.6,977.5,365.1
				L977.5,365.1z"/>
		</g>
	</g>
</g>
<g id="shirt">
	<path d="M282,415.3c0.8,4.7,3.2,14.3,11.2,21.9c14.9,14.1,41.2,13.7,48.8,3.8c2.8-3.7,1.6-6.8,8.1-22.1c1.7-4.1,2.2-4.8,1.9-5.8
		C350.8,408.7,336.5,406.6,282,415.3z"/>
	<path d="M495,432.3c4.8-1.1,11.4-2.7,19.3-4.8c16.2-4.3,19.3-5.8,22.2-7.7c3.7-2.5,9.6-7.6,13.8-18.1c-4.3-2.8-19.1-11.9-37-8
		c-5.9,1.3-19.1,4.2-23.2,15.4C486.2,420.2,494,431.1,495,432.3z"/>
	<path d="M325.1,559.8c11.3,4.4,27.8,9.6,48.3,11.6c10.3,1,27.3,1.7,62.2-4.7c22.1-4.1,51.9-11.1,86.3-23.8
		c-4.4-9.3-12.6-22.2-26.9-29.3c-15.5-7.7-25.8-2.5-63.7,2.9c-55.4,7.8-73,2.2-90.8,19.2C331.9,543.6,327.5,553,325.1,559.8z"/>
	<path class="st1" d="M373,305.9c-8.3-1.1-15.1-1.3-20.1-1.2c-11.7,0.1-14.8,1.5-17,3.1c-4.3,3.3-5.4,8.4-6.2,11.4
		c-3.2,12.3-8.5,15.5-18,31.6c-6.1,10.4-15.5,28.9-29.8,64.5c7.2-2.9,11.8-1.7,13.8-0.9c5.6,2.2,8.7,7.8,13.3,16.1
		c3.6,6.5,3.6,8.5,6.9,11.7c1.7,1.6,6.2,5.9,12,5.5c5.9-0.4,11.3-5.4,13.6-12.5c0,7.1-0.1,14.4-0.4,21.8c-1.5,36-6.7,68.8-13.6,98
		c2.5-2.9,7-7.3,13.6-8.6c8.1-1.6,15.1,2.3,27.4,9.4c11.4,6.5,10.8,8.1,17.9,11.4c13,6,25.3,5.5,28.6,5.3c8.8-0.5,19-5.1,38.9-14.2
		c20.6-9.5,20.5-10.8,27.5-11.9c8.7-1.4,14.2-0.1,28.7-2.2c6.1-0.9,11-1.9,14.1-2.7c-2.2-11.1-4.4-22.2-6.6-33.2
		c-5.5-27.5-11.1-55.1-16.8-82.6c0-2.4,0-12.9,6.4-16.6c3.9-2.2,8.5-1.2,15.9,0.6c10.8,2.5,13.4,5.8,17.6,4.4
		c2.9-0.9,6.6-4,9.1-14.7c-3.5-2.4-8.2-6-13.3-10.9c-10-9.8-15.5-19.3-20.2-27.6c-6.3-11.1-9.8-17.4-12.4-27.2
		c-3-11.8-1.8-18.2-7.4-22.6c-4.1-3.3-8.7-3-16.6-3c-8.2,0-20-0.5-34.7-2.3c0.5,2.8,0.9,7.8-1.2,13.3c-2.4,6.5-6.8,10.1-11.1,13.7
		c-4.8,3.9-8.8,7.3-14.5,8.6c-11,2.4-20.7-4.3-25.7-7.7C380,324.7,374.9,311.8,373,305.9z"/>
	<path class="st3" d="M394.3,418.2c-8,2-11,10.1-11.4,11.3c-2.9,7.8,0.5,14.7,1.3,16.2c1.2,2.4,3.4,6.9,8.3,8.7
		c6.6,2.5,13.9-1.5,17.8-5.9c4.7-5.2,7.2-14,2.9-21.6C409.6,420.7,401.8,416.3,394.3,418.2z"/>
	<path class="st3" d="M431.2,407.9c-5.6,4.1-4.6,12.4-4.6,12.9c0.7,5.4,4.7,12.2,11.6,13c5.2,0.6,10.1-2.5,12.6-6.4
		c2.7-4.1,3-9.4,0.9-13.6C448.1,406.6,437.4,403.4,431.2,407.9z"/>
	<g>
		<g>
			<path d="M223.9,258.4c-3.2,91.8-4.4,183.8-3.4,275.6c0.1,14.5,0.3,31.4,10,43.1c5.3,6.4,12.9,9.4,21,10.7
				c10.2,1.7,20.7,2.2,31,3.1c45.3,4,90.7,7,136.2,8.3c25.7,0.7,51.4,0.9,77.1,0.4c12.5-0.2,25-0.7,37.5-1.2
				c6.6-0.3,13.2-0.7,19.7-1.1c6.5-0.4,14.1-2,20.2,0.8c1.7,0.8,3.3-1.8,1.5-2.6c-8.4-3.8-18.8-1.4-27.6-0.9
				c-11.2,0.6-22.4,1.1-33.6,1.5c-22.4,0.7-44.8,0.9-67.2,0.6c-44.5-0.6-89-2.9-133.3-6.4c-11.2-0.9-22.3-1.8-33.5-2.8
				c-10.3-0.9-21.2-1.1-31.3-3.5c-19.7-4.8-24-23.9-24.6-41.7c-1.7-44.2-0.6-88.7-0.1-132.9c0.5-50.4,1.7-100.8,3.4-151.2
				C227,256.5,224,256.5,223.9,258.4L223.9,258.4z"/>
		</g>
	</g>
	<g>
		<g>
			<path d="M224.6,254.9c20.4-9.7,42.2-15.7,64.7-17.8c22.9-2.2,46.1-1.9,69.1-2.1c45.9-0.4,91.9,0.2,137.8,2.3
				c22.5,1,45.1,2.8,67.1,8.3c4.6,1.2,12.1,2.1,14.9,6.4c2.7,4.2,2.7,11.3,3.4,16.1c1.7,11.8,3,23.6,4,35.4
				c3.7,45.1,2.4,90.4-0.5,135.6c-3.3,51.7-7.7,103.3-11,154.9c-0.1,1.9,2.9,1.9,3,0c3.1-47.8,7-95.5,10.2-143.2
				c3.2-47.4,5.1-95,1.6-142.4c-0.9-11.7-2-23.3-3.6-34.9c-0.7-5.3-1.4-10.6-2.4-15.9c-0.6-3.7-1.5-7.2-4.5-9.7
				c-2.9-2.5-7.2-3.3-10.8-4.3c-6.1-1.6-12.2-3-18.4-4.1c-10.7-1.9-21.5-3.1-32.3-4c-47.4-3.7-95.3-3.7-142.8-3.6
				c-26.9,0.1-54.1-0.3-81,1.8c-24.4,1.9-48,8-70.1,18.5C221.3,253.1,222.9,255.7,224.6,254.9L224.6,254.9z"/>
		</g>
	</g>
	<g>
		<g>
			<path d="M233.8,212.7c12.1,5.4,23.7,11.8,34.7,19.2c1.6,1.1,3.1-1.5,1.5-2.6c-11-7.4-22.6-13.8-34.7-19.2
				C233.6,209.4,232.1,211.9,233.8,212.7L233.8,212.7z"/>
		</g>
	</g>
	<g>
		<g>
			<path d="M242,235.8c8.6-11.3,16.6-23.8,26.2-34.2c1.3-1.4-0.8-3.5-2.1-2.1c-9.8,10.7-17.9,23.3-26.6,34.8
				C238.2,235.8,240.9,237.3,242,235.8L242,235.8z"/>
		</g>
	</g>
	<g>
		<g>
			<path d="M282.3,196.8c-0.7,7.2-1,14.5-0.7,21.7c0.1,3.5-0.5,7.9,3.3,9.3c2.2,0.8,6,0.2,8.4,0.2c3.6,0,7.3,0.1,10.9,0.1
				c8,0,15.9-0.1,23.9-0.3c1.9,0,1.9-3,0-3c-11.9,0.3-23.9,0.3-35.8,0.2c-2.4,0-6.3,0.8-7.5-1.8c-0.9-2-0.3-6.3-0.3-8.5
				c-0.1-6,0.2-12,0.8-18C285.5,194.9,282.5,194.9,282.3,196.8L282.3,196.8z"/>
		</g>
	</g>
	<g>
		<g>
			<path d="M284.2,197.1c12.5-1.8,25.1-2.3,37.7-1.5c2.7,0.2,6.4-0.2,8.9,0.8c1.2-0.2,1.7,0.3,1.3,1.5c0.2,1.1,0.1,2.1-0.3,3.2
				c-0.2,1.2-0.4,2.4-0.7,3.7c-1.1,6.1-2.2,12.2-3.4,18.3c-0.3,1.9,2.5,2.7,2.9,0.8c1.5-7.9,2.9-15.9,4.4-23.8
				c0.8-4.4,0-6.1-4.5-6.7c-15.6-2-31.6-1.3-47.1,0.9C281.5,194.5,282.4,197.4,284.2,197.1L284.2,197.1z"/>
		</g>
	</g>
	<g>
		<g>
			<path d="M283.8,205.5c16.4,0.1,32.8,0.6,49.1,1.5c1.9,0.1,1.9-2.9,0-3c-16.4-0.9-32.7-1.4-49.1-1.5
				C281.9,202.5,281.9,205.5,283.8,205.5L283.8,205.5z"/>
		</g>
	</g>
	<g>
		<g>
			<path d="M343.4,212.9c9,1.9,18,3.5,27,4.8c4.5,0.6,9,1.1,13.4,1.5c5.1,0.5,11.2,0,16,2c1.8,0.8,3.3-1.8,1.5-2.6
				c-3.2-1.4-6.4-1.5-9.8-1.8c-5.1-0.4-10.3-0.8-15.4-1.4c-10.8-1.3-21.4-3.1-32-5.4C342.3,209.6,341.5,212.5,343.4,212.9
				L343.4,212.9z"/>
		</g>
	</g>
	<g>
		<g>
			<path class="st0" d="M231.3,506.8c0.3,12.7,1,25.4,2.2,38c0.6,6.2,1.2,12.3,2.1,18.4c0.5,3.4,1.2,6.5,4.2,8.6
				c3.6,2.6,8.8,3.1,13,4c6,1.3,12,2.4,18.1,3.3c12.3,1.8,24.7,2.8,37.1,3c1.9,0,1.9-3,0-3c-10.9-0.2-21.8-1-32.6-2.4
				c-10.2-1.3-21.2-2.6-30.9-5.9c-6.6-2.2-6.1-9.4-6.8-15.3c-0.6-5.2-1.1-10.4-1.6-15.5c-1-11-1.5-22.1-1.8-33.2
				C234.3,504.9,231.3,504.9,231.3,506.8L231.3,506.8z"/>
		</g>
	</g>
	<g>
		<g>
			<path class="st0" d="M500,246.3c21.6,1.6,43.5,3.3,64.4,9.5c3.6,1.1,6.2,2,7.2,6.1c0.7,2.7,0.3,6,0.5,8.8
				c0.3,5.5,0.4,11.1,0.6,16.6c0.2,11.4,0.2,22.8-0.2,34.2c-0.1,1.9,2.9,1.9,3,0c0.4-13,0.4-26.1,0-39.1c-0.2-6.5-0.4-13-0.8-19.5
				c-0.2-3.6-0.3-6.3-3.8-8.1c-4.8-2.4-11.1-3.5-16.3-4.6c-6-1.4-12.1-2.4-18.1-3.3c-12.1-1.7-24.2-2.6-36.3-3.5
				C498,243.2,498.1,246.2,500,246.3L500,246.3z"/>
		</g>
	</g>
	<g>
		<g>
			<path d="M283.3,416.1c9.2-18.8,18.4-37.5,27.6-56.3c4.7-9.5,9.3-19.1,14-28.6c2.2-4.5,4.4-8.9,6.6-13.4c2.4-5,4.1-9.4,10.1-10.5
				c5.1-1,10.5-1.2,15.7-1.3c4.9-0.1,13.1-1.3,16.7,2.7c2.6,2.9,4,7.2,5.8,10.5c1.9,3.5,4,7,6.4,10.1c8.7,11.3,23.1,16.7,37,12.8
				c15.6-4.4,25.4-20.3,23.8-36.2c-0.2-1.9-3.2-1.9-3,0c1.8,17.9-11.5,34.3-29.8,34.5c-8.6,0.1-16.8-3.3-22.7-9.5
				c-6-6.2-9.1-14-13.3-21.3c-3.9-6.8-10-6.7-17.2-6.7c-4.6,0-9.2,0.3-13.8,0.7c-3.4,0.3-7.4,0.5-10.6,2c-2.5,1.3-4,3.4-5.3,5.8
				c-2.4,4.5-4.5,9.2-6.8,13.8c-4.4,8.9-8.7,17.9-13.1,26.8c-10.2,20.8-20.4,41.7-30.6,62.5C279.9,416.3,282.5,417.8,283.3,416.1
				L283.3,416.1z"/>
		</g>
	</g>
	<g>
		<g>
			<path d="M446.8,306.6c7.6,0.7,15.1,1.4,22.7,2.1c7.5,0.7,15.8,0.5,23.1,2.2c6.2,1.4,6.8,13.1,8.4,18.3c1.7,5.5,3.7,10.8,5.9,16.1
				c9.5,22.1,24.1,41.9,42.3,57.6c1.5,1.3,3.6-0.9,2.1-2.1c-20.4-17.5-36.1-40.2-45.2-65.5c-2.2-6-3.8-12.1-5.3-18.4
				c-1.1-4.4-2.7-7.7-7.4-8.8c-6.7-1.6-14.1-1.4-20.9-2.1c-8.5-0.8-17.1-1.6-25.6-2.4C444.9,303.4,444.9,306.4,446.8,306.6
				L446.8,306.6z"/>
		</g>
	</g>
	<g>
		<g>
			<path d="M283.8,417.1c18.4-10.9,23.1,18.3,32.2,27.1c9.5,9.1,24.8,4.3,27-8.7c0.3-1.9-2.6-2.7-2.9-0.8
				c-1.7,10.3-13.4,15-21.5,7.9c-5.2-4.6-7.3-11.5-10.5-17.5c-5.2-9.8-15-17-25.9-10.6C280.7,415.5,282.2,418.1,283.8,417.1
				L283.8,417.1z"/>
		</g>
	</g>
	<g>
		<g>
			<path d="M548.4,399.4c0.2,7.3-4,14.7-12.3,13c-6.7-1.4-12.6-4.6-19.5-5.5c-4-0.5-8.7-1.1-11.6,2.3c-3.5,4.1-4.7,11-5.6,16.1
				c-0.3,1.9,2.6,2.7,2.9,0.8c0.6-3.4,1.3-6.7,2.5-9.9c1.2-3.4,2-6,6.4-6.7c1.9-0.3,4.8,0.3,6.6,0.5c6.7,1,12.8,4.8,19.4,5.6
				c9.4,1,14.5-7.8,14.2-16.2C551.4,397.5,548.4,397.5,548.4,399.4L548.4,399.4z"/>
		</g>
	</g>
	<g>
		<g>
			<path d="M333.3,377.7c2.6,2.6,4.7,5.5,6.3,8.8c0.8,1.7,3.4,0.2,2.6-1.5c-1.7-3.5-4-6.7-6.8-9.5
				C334.1,374.3,332,376.4,333.3,377.7L333.3,377.7z"/>
		</g>
	</g>
	<g>
		<g>
			<path d="M340.5,380c2.6,58.3-2.1,116.7-13.9,173.8c-0.4,1.9,2.5,2.7,2.9,0.8c11.9-57.4,16.6-116.1,14-174.6
				C343.4,378.1,340.4,378.1,340.5,380L340.5,380z"/>
		</g>
	</g>
	<g>
		<g>
			<path d="M328.9,555.7c8.9-15.2,28.5-5.9,39.1,1.5c12.1,8.4,24.2,16.4,39.3,17.1c26.4,1.3,48.1-17.6,72.1-25.6
				c7.3-2.4,14.8-3.8,22.6-3.5c8,0.4,15.9,1.7,23.2-2.4c1.7-0.9,0.2-3.5-1.5-2.6c-7.7,4.3-16.4,1.8-24.7,1.9
				c-6.4,0-12.8,1.3-18.9,3.2c-12.8,4-24.4,10.8-36.4,16.5c-12.8,6.1-26.8,11.2-41.2,8.9c-8.4-1.4-16.3-5-23.3-9.6
				c-6.4-4.2-12.3-9.2-19.2-12.7c-10.8-5.5-26.5-6.2-33.4,5.7C325.4,555.8,327.9,557.4,328.9,555.7L328.9,555.7z"/>
		</g>
	</g>
	<g>
		<g>
			<path d="M488.7,382.3c12.3,53,23.7,106.3,34.2,159.7c0.4,1.9,3.3,1.1,2.9-0.8c-10.5-53.4-21.9-106.7-34.2-159.7
				C491.2,379.7,488.3,380.4,488.7,382.3L488.7,382.3z"/>
		</g>
	</g>
	<g>
		<g>
			<path d="M410.3,386c-0.8,11.1-3.8,21.8-8.8,31.7c-0.9,1.7,1.7,3.2,2.6,1.5c5.3-10.4,8.3-21.6,9.2-33.2
				C413.4,384.1,410.4,384.1,410.3,386L410.3,386z"/>
		</g>
	</g>
	<g>
		<g>
			<path d="M386.1,445.5c-7.4-7.7-1.5-19.8,6.4-24.6c8.5-5.1,17.9-0.5,20,9c1.7,7.5-1,18.5-8.3,22.5c-8.5,4.6-17.9-1.2-19.3-10.3
				c-0.3-1.9-3.2-1.1-2.9,0.8c1.6,10.5,12.4,17.1,22.4,12.7c10.3-4.5,14-19.8,10-29.6c-4.3-10.4-15.8-13.2-24.8-6.8
				c-8.8,6.3-14.1,19.7-5.7,28.5C385.3,449.1,387.4,446.9,386.1,445.5L386.1,445.5z"/>
		</g>
	</g>
	<g>
		<g>
			<path d="M412.5,383.9c-2.1-2.9-4.7-5-7.6-7.1c-4.7-3.5-8.4-7.3-10.7-12.8c-0.5-1.2-2.6-1.6-2.9,0c-1.2,7-0.7,14.7,3.9,20.4
				c4.3,5.3,11.4,7.8,17.9,5.5c1.8-0.6,1-3.5-0.8-2.9c-5.7,2-11.8-0.3-15.3-5.2c-3.5-5-3.9-11.2-2.9-17c-1,0-1.9,0-2.9,0
				c1.7,4,3.9,7.6,7,10.6c3.7,3.5,8.4,5.8,11.5,10C411.1,387,413.7,385.5,412.5,383.9L412.5,383.9z"/>
		</g>
	</g>
	<g>
		<g>
			<path d="M413.6,385c2.7-10.4,16.2-13.1,17.4-24.6c-1,0-2,0-3,0c-0.5,9.8-2.9,23.9-15.4,24.4c-1.9,0.1-1.9,3.1,0,3
				c14.3-0.6,17.8-15.7,18.4-27.4c0.1-2-2.8-1.9-3,0c-1,10.4-14.6,13.7-17.3,23.8C410.2,386.1,413.1,386.9,413.6,385L413.6,385z"/>
		</g>
	</g>
	<g>
		<g>
			<path d="M412.4,387.4c3.5,3.5,4,9.3,6.8,13.5c2.4,3.6,5.6,6.5,9.4,8.8c1.7,1,3.2-1.6,1.5-2.6c-4.6-2.7-8.2-6.6-10.3-11.5
				c-1.6-3.6-2.3-7.4-5.2-10.3C413.2,383.9,411,386,412.4,387.4L412.4,387.4z"/>
		</g>
	</g>
	<g>
		<g>
			<path d="M435.2,431.6c-5.1-2.1-8-10-7.6-15.2c0.6-8.2,10.8-11,17.2-7.7c5.7,3,7.9,9.9,5.7,15.8c-2.4,6.6-10,9.2-16.3,7.2
				c-1.8-0.6-2.6,2.3-0.8,2.9c7.8,2.5,17-1,20-9c2.9-7.8-0.9-17-8.7-20.1c-7.6-2.9-18.2,0.4-20,9.1c-1.4,7.2,2.7,17.2,9.6,20
				C436.2,435.2,437,432.3,435.2,431.6L435.2,431.6z"/>
		</g>
	</g>
</g>
<g id="cart">
	<path class="st1" d="M1201.1,719.4c8.1-4.6,15.2-6.4,19.8-7.1c5.2-0.8,9.8-1.6,15.4,0.2c7.6,2.4,12,8,13.8,10.5
		c1.5-9.8,3.7-17.7,5.5-23.2c1.8-5.5,3.1-8.4,5.3-11.2c0.8-1,3.8-4.7,11.6-9c6.4-3.5,11.7-4.9,21.9-7.6c10.2-2.7,15.4-4,19.3-3
		c4.3,1,7.8,3.8,14.6,9.4c5.7,4.6,10.1,8.9,13.1,12c0.6-2.3,2.2-7.4,6.9-11.8c4.3-4.1,9-5.3,11.8-6c11.4-2.8,21.3,1.6,24.9,3.4
		c-2.9,3.9-7.4,9.2-13.9,14.4c-14,11.2-27.3,13.9-42.6,17.9c-34.5,9-26.3,10.8-69,22.4c-13.4,3.6-30.1,7.8-49.5,11.7
		C1207,734.7,1204.1,727,1201.1,719.4z"/>
	<path d="M1211.9,742.3c10.7-5.1,21.5-10.4,32.4-15.7c14.4-7.1,28.6-14.3,42.5-21.4c4.1-0.2,10-0.6,17.2-1.5
		c27.5-3.4,48.9-10.9,61.8-16.2c6.2-2.6,14.5-6.3,24-11.4c-8.9,7.2-19.7,14.8-32.4,22.1c-19.9,11.3-38.7,18.1-53.8,22.4
		C1273,727.7,1242.5,735,1211.9,742.3z"/>
	<g>
		<g>
			<path d="M1198.5,515.3c33.6,13.2,61.3,38.9,77.1,71.3c0.8,1.7,3.4,0.2,2.6-1.5c-16.2-33.1-44.6-59.2-78.9-72.7
				C1197.5,511.8,1196.7,514.7,1198.5,515.3L1198.5,515.3z"/>
		</g>
	</g>
	<g>
		<g>
			<path d="M1174.4,655.1c25.6-16.6,51.2-33.3,76.8-49.9c1.6-1,0.1-3.6-1.5-2.6c-25.6,16.6-51.2,33.3-76.8,49.9
				C1171.3,653.6,1172.8,656.2,1174.4,655.1L1174.4,655.1z"/>
		</g>
	</g>
	<g>
		<g>
			<path d="M1252.9,604.5c38.1-5.6,76.1-11.3,114.2-16.9c1.9-0.3,1.1-3.2-0.8-2.9c-38.1,5.6-76.1,11.3-114.2,16.9
				C1250.2,601.8,1251,604.7,1252.9,604.5L1252.9,604.5z"/>
		</g>
	</g>
	<g>
		<g>
			<path d="M1276.7,587.6c1.6,3.7,2.8,7.6,3.8,11.5c0.5,1.9,3.4,1.1,2.9-0.8c-1-3.9-2.3-7.7-3.8-11.5
				C1278.9,585,1276,585.8,1276.7,587.6L1276.7,587.6z"/>
		</g>
	</g>
	<g>
		<g>
			<path d="M1250.9,604.4c11.9,33.7,23.7,67.3,35.6,101c0.6,1.8,3.5,1,2.9-0.8c-11.9-33.7-23.7-67.3-35.6-101
				C1253.2,601.8,1250.3,602.5,1250.9,604.4L1250.9,604.4z"/>
		</g>
	</g>
	<g>
		<g>
			<path d="M1288.6,706.5c35.7-2.2,70.5-12.2,102-29.2c1.7-0.9,0.2-3.5-1.5-2.6c-31,16.8-65.3,26.6-100.5,28.8
				C1286.6,703.6,1286.6,706.6,1288.6,706.5L1288.6,706.5z"/>
		</g>
	</g>
	<g>
		<g>
			<path d="M1366.8,588c7.6,29.3,15.3,58.7,22.9,88c0.5,1.9,3.4,1.1,2.9-0.8c-7.6-29.3-15.3-58.7-22.9-88
				C1369.2,585.4,1366.3,586.1,1366.8,588L1366.8,588z"/>
		</g>
	</g>
	<g>
		<g>
			<path d="M1172,653.1c11.1,30.2,23,60.1,35.6,89.7c0.8,1.8,3.3,0.2,2.6-1.5c-12.6-29.3-24.4-59-35.3-89
				C1174.2,650.5,1171.3,651.3,1172,653.1L1172,653.1z"/>
		</g>
	</g>
	<g>
		<g>
			<path d="M1210.7,743.6c26.1-11.5,51.7-23.9,76.8-37.2c1.7-0.9,0.2-3.5-1.5-2.6c-25.1,13.3-50.8,25.7-76.8,37.2
				C1207.5,741.8,1209,744.4,1210.7,743.6L1210.7,743.6z"/>
		</g>
	</g>
	<g>
		<g>
			<path d="M1212.3,743.7c28.4-7.2,56.9-14,85.5-20.4c1.9-0.4,1.1-3.3-0.8-2.9c-28.6,6.4-57.1,13.2-85.5,20.4
				C1209.7,741.3,1210.5,744.2,1212.3,743.7L1212.3,743.7z"/>
		</g>
	</g>
	<g>
		<g>
			<path d="M1300.2,723c17.4-5.3,34.4-11.9,50.7-20c8.2-4.1,16.3-8.5,24.1-13.2c4.1-2.4,8.1-5,12-7.6c2.1-1.4,4.9-2.6,6-5
				c0.2-0.5-0.1-1.1-0.4-1.5c-0.2-0.2-0.3-0.3-0.5-0.5c-0.5-0.5-1.2-0.5-1.8-0.2c-0.2,0.1-0.3,0.2-0.5,0.2c-1.8,0.8-0.2,3.4,1.5,2.6
				c0.2-0.1,0.3-0.2,0.5-0.2c-0.6-0.1-1.2-0.2-1.8-0.2c-0.8-0.9-19,11.4-21.1,12.6c-7.2,4.2-14.5,8.1-21.9,11.7
				c-15.3,7.4-31.3,13.6-47.6,18.5C1297.5,720.7,1298.3,723.6,1300.2,723L1300.2,723z"/>
		</g>
	</g>
	<g>
		<g>
			<path d="M1278.6,677.4c5.8-1.6,11.6-3,17.5-4.3c5.5-1.2,13.3-4.1,18.8-2.3c5.3,1.7,10.4,6.8,14.5,10.4c4.3,3.8,8.4,8,12.2,12.3
				c1.3,1.5,3.4-0.7,2.1-2.1c-4.4-5-9.1-9.7-14.2-14c-4-3.4-8.7-7.9-13.8-9.5c-4.9-1.5-10.9,0.4-15.8,1.4
				c-7.4,1.5-14.8,3.3-22.1,5.3C1275.9,675,1276.7,677.9,1278.6,677.4L1278.6,677.4z"/>
		</g>
	</g>
	<g>
		<g>
			<path d="M1276.8,675.8c-7.6,3.3-16.1,8.7-20.4,16c-2.2,3.7-2.5,8.1-3.1,12.2c-0.8,5.4-1.5,10.8-2.1,16.2c-0.2,1.9,2.8,1.9,3,0
				c0.6-4.8,1.2-9.7,1.9-14.5c0.6-4.1,0.8-8.8,2.9-12.4c4-6.9,12.2-11.9,19.3-15C1280.1,677.6,1278.6,675,1276.8,675.8L1276.8,675.8
				z"/>
		</g>
	</g>
	<g>
		<g>
			<path d="M1201.5,720.9c7.6-2.7,15.3-6.2,23.2-8.2c8.3-2.1,19.3,4.3,24,11.1c1.1,1.6,3.7,0.1,2.6-1.5c-4.2-6.1-12.8-11.8-20.2-13
				c-4.7-0.7-9,1-13.4,2.6c-5.7,2-11.4,4.1-17.1,6.1C1198.9,718.6,1199.7,721.5,1201.5,720.9L1201.5,720.9z"/>
		</g>
	</g>
	<g>
		<g>
			<path d="M1342.7,691c1.5-3.4,3.3-6.6,5.4-9.7c3-4.3,6-6.3,11-7.2c8-1.3,18.1-1.4,25.1,3.1c1.6,1,3.1-1.6,1.5-2.6
				c-7.7-4.9-18.7-4.9-27.5-3.4c-9.9,1.7-14.3,9.6-18.2,18.2C1339.3,691.3,1341.9,692.8,1342.7,691L1342.7,691z"/>
		</g>
	</g>
</g>
<g id="girl">
	<g id="leg_right">
		<path class="st4" d="M1266.7,1069.8c0.9,9,1.9,18,2.8,27c-9.9,0.7-17.5,2.6-22.6,4.3c-7.1,2.4-11.1,4.7-23.7,10.6
			c-8,3.7-14.5,6.6-18.8,8.5c3.2,1.4,8,3.2,14.1,4.2c8.7,1.3,13.9-0.1,22.9-1.3c12.7-1.7,11.9-0.1,39.7-2.3
			c12.2-1,17.8-1.7,20.1-5.8c1.5-2.6,0.8-5.1-0.2-13.5c-0.8-6.4-0.9-12.9-1.7-19.4c-0.7-6.5-1.7-16.1-2.4-28.1
			C1286.9,1059.3,1276.8,1064.6,1266.7,1069.8z"/>
		<path class="st1" d="M1206.4,580.9c0.8,5.3,1.9,13.1,3.4,22.5c6.2,39,12.3,69.9,19.1,102.4c11.1,53.1,19.4,93,32.9,149.1
			c13.1,54.2,29.7,118,50.7,189.4c-5.1,4.5-12,9.7-20.7,14.2c-15.2,7.9-29.3,10.4-38.6,11.2c-5.5-12.2-13.6-30.4-22.5-52.8
			c-27.7-69.2-43-126.1-54.1-167.4c-4.3-16.2-11.9-46.7-26.9-107.5c-5.3-21.3-9.6-38.8-12.4-50.3c-1.7-5-12.1-36.6,5.9-68.6
			C1163.3,587,1202.3,581.5,1206.4,580.9z"/>
		<path class="st5" d="M1177,657c-0.1,7.4,0,18.1,0.7,31.1c2.8,46.1,12.4,81.1,19.5,105.3c13.6,46,44.5,141.5,90.3,265.6
			c-3.3,2.2-7.4,4.5-12.4,6.5c-8.4,3.3-15.9,4.4-21.4,4.7c-9.9-21.5-23.4-52.6-37.4-90.8c-18.6-50.9-29.2-90.1-45.6-151.5
			c-9.1-34.1-20.5-79.1-32.7-132.7C1151,682.5,1164,669.7,1177,657z"/>
		<g>
			<g>
				<path d="M1204.9,583c20.3,121.4,46.3,241.9,78,360.8c9,33.8,18.5,67.5,28.4,101c0.5,1.8,3.4,1.1,2.9-0.8
					c-34.8-118.1-64.1-237.7-87.7-358.6c-6.7-34.3-12.9-68.8-18.7-103.3C1207.4,580.3,1204.6,581.1,1204.9,583L1204.9,583z"/>
			</g>
		</g>
		<g>
			<g>
				<path d="M1137.9,699.2c23.2,98.8,46.5,198,81.8,293.4c9.8,26.4,20.4,52.4,32.2,78c0.8,1.8,3.4,0.2,2.6-1.5
					c-42.1-91.7-69.7-189.2-93.7-286.9c-6.8-27.9-13.4-55.8-20-83.7C1140.4,696.5,1137.5,697.3,1137.9,699.2L1137.9,699.2z"/>
			</g>
		</g>
		<g>
			<g>
				<path d="M1253.7,1071.7c22.8,0.5,42-13,59.5-26c1.5-1.1,0-3.7-1.5-2.6c-17,12.7-35.8,26.1-58,25.6
					C1251.8,1068.6,1251.8,1071.6,1253.7,1071.7L1253.7,1071.7z"/>
			</g>
		</g>
		<g>
			<g>
				<path d="M1265.2,1069.8c0.4,9.2,1.3,18.3,2.9,27.4c0.5-0.6,1-1.3,1.4-1.9c-11.1-1.3-21.3,3.5-31.2,8
					c-11.6,5.2-23.2,10.5-34.7,15.7c-1,0.4-0.8,1.7-0.3,2.4c3.1,3.9,7.8,4.7,12.5,4.7c7.4,0,14.9-0.8,22.3-1.2
					c16.4-0.9,32.8-1.8,49.2-2.8c4.3-0.3,9.2-0.3,12.7-3.1c4.8-3.8,3.1-10.5,2.6-15.8c-1.4-16.4-2.8-32.7-4.2-49.1
					c-0.2-1.9-3.2-1.9-3,0c1.1,13.4,2.3,26.8,3.4,40.3c0.5,5.9,2.8,14.2,0.6,19.8c-2.4,6.2-12.7,5-18.2,5.3
					c-13.1,0.7-26.2,1.5-39.3,2.2c-6.9,0.4-13.8,0.8-20.7,1.2c-5.5,0.3-12.2,1.3-16-3.6c-0.1,0.8-0.2,1.6-0.3,2.4
					c10.4-4.7,20.8-9.4,31.2-14.1c10.5-4.7,21.3-10.6,33.2-9.2c1.1,0.1,1.6-1.1,1.4-1.9c-1.5-8.8-2.4-17.7-2.7-26.6
					C1268.2,1067.9,1265.2,1067.9,1265.2,1069.8L1265.2,1069.8z"/>
			</g>
		</g>
	</g>
	<g id="leg_left">
		<path class="st4" d="M1100.8,1056.2c0.4,14.3,0.8,28.6,1.3,42.9c-12.8,2.8-22.4,4.9-27.6,6c-10.9,2.3-22.8,4.8-36.4,11.9
			c-8.1,4.3-8.4,5.8-8.2,6.4c0.8,3.4,18.6,2,26.7,1.4c19.3-1.5,47.2-3.3,86.5-5c-0.9-10.2-1.5-21-1.7-32.4
			c-0.3-16.8,0.5-32.4,1.7-46.6C1129,1045.9,1114.9,1051.1,1100.8,1056.2z"/>
		<path class="st1" d="M1082.7,591.3c-0.3,6.2-0.8,15.5-1.3,26.7c-2.4,49.8-6.9,142.3-7.3,215.9c-0.3,51.7,1.2,124.3,9.4,214
			c6,3.8,14.3,8,24.6,10.7c25.5,6.5,47.2-0.7,56.2-4.3c-2-13.9-4.4-33.1-6.6-56.1c-5.6-58.3-5.8-103.3-5.9-137.5
			c-0.2-73.4,4.2-63.7,2.3-100.5c-1.2-22.2,3.5-44.3,3.6-66.5c0-3.9,0-12.4,4.8-21.3c5.9-10.8,16-16.5,22.4-19.3
			c1.9-8.7,4-23.8,0-41.5c-2.1-9.3-6.4-28.2-19.2-37.8C1147.3,559.9,1112.8,566.3,1082.7,591.3z"/>
		<path class="st6" d="M1160.8,675.2c-1.6-0.2-10.3,53.6-16.7,128.2c-9.1,105-8.8,193.6-6.3,258.5c4.4-1,9-2.2,13.9-3.6
			c4.4-1.3,8.6-2.7,12.5-4.1c-2.7-20.4-6.3-50.1-8.9-86.1C1143.1,801.7,1163.3,675.5,1160.8,675.2z"/>
		<g>
			<g>
				<path d="M1081.2,591.3c-6,118.6-12,237.4-6.7,356.1c1.5,33.6,3.9,67.1,7.4,100.5c0.2,1.9,3.2,1.9,3,0
					c-12.5-118.2-10.6-237.2-5.6-355.7c1.4-33.6,3.1-67.3,4.8-100.9C1084.3,589.4,1081.3,589.4,1081.2,591.3L1081.2,591.3z"/>
			</g>
		</g>
		<g>
			<g>
				<path d="M1178.1,652.8c-17.8,7.5-21.5,29.3-22.7,46.4c-2,28.3-3,56.7-4,85c-2,58.2-2.1,116.4,1.5,174.5
					c2,32.1,5.2,64.1,9.7,95.9c0.3,1.9,3.2,1.1,2.9-0.8c-15.8-110.7-14.2-222.9-8.2-334.3c1.1-20.6-0.8-54.3,22.3-64.1
					C1181.4,654.6,1179.9,652.1,1178.1,652.8L1178.1,652.8z"/>
			</g>
		</g>
		<g>
			<g>
				<path d="M1083.1,1049.7c12.5,7.2,26.3,11.8,40.6,13.3c13.4,1.4,28,0.7,39.9-6.3c1.7-1,0.2-3.6-1.5-2.6
					c-11.4,6.7-25.5,7.3-38.4,5.9c-13.8-1.4-27.1-5.9-39.1-12.9C1082.9,1046.1,1081.4,1048.7,1083.1,1049.7L1083.1,1049.7z"/>
			</g>
		</g>
		<g>
			<g>
				<path d="M1099.3,1056.2c0.4,14.3,0.8,28.6,1.3,42.9c0.4-0.5,0.7-1,1.1-1.4c-14.3,2.9-28.7,5.8-42.8,9.6
					c-11,2.9-21.7,7.1-30,15.1c-0.8,0.7-0.5,1.8,0.3,2.4c2.9,2.1,6.2,2,9.7,1.9c4.6,0,9.2-0.2,13.8-0.3c10.2-0.2,20.3-0.6,30.5-1.1
					c20-0.9,40-2.3,59.9-4c0.8-0.1,1.5-0.6,1.5-1.5c-1-18.9-2-37.8-3-56.7c-0.1-1.9-3.1-1.9-3,0c1,18.9,2,37.8,3,56.7
					c0.5-0.5,1-1,1.5-1.5c-18.6,1.6-37.3,2.9-56,3.9c-9.2,0.4-18.4,0.8-27.5,1.1c-4.6,0.1-9.2,0.2-13.8,0.3
					c-4.5,0.1-11.2,1.4-15.1-1.4c0.1,0.8,0.2,1.6,0.3,2.4c8.7-8.4,20.2-12.2,31.8-15.1c13.2-3.3,26.5-6.1,39.8-8.8
					c0.6-0.1,1.1-0.8,1.1-1.4c-0.4-14.3-0.8-28.6-1.3-42.9C1102.3,1054.3,1099.3,1054.3,1099.3,1056.2L1099.3,1056.2z"/>
			</g>
		</g>
	</g>
	<g id="hand_right">
		<path class="st1" d="M1194.6,406.3c-8.3-3.1-16.4,0.9-17.4,1.4c-10.1,5.2-15.7,18.6-13.2,33.2c3.4,8.3,6.7,16.6,10.1,25
			c4.8,12,9.6,23.9,14.5,35.9c-2.2,3.6-5.6,9-9.8,15.5c-13.8,22.1-15.7,25.4-19.7,30.7c-4.9,6.4-12.5,15.1-24.1,24
			c6.6,1.5,15.9,2.8,26.8,2c16.2-1.2,28.5-6.6,35.7-10.4c8.4-6.3,14.5-12.5,18.5-17.2c8.3-9.7,10.2-15.5,10.7-17.1
			c1.4-4.5,1.7-8.5,1.6-14.8c-0.2-11.7-1.5-20.8-3.3-31.6c-2.8-17.4-4.2-26.3-6.5-34.6c-3-11-5.7-17.1-7-19.9
			C1206.1,416.9,1202.5,409.2,1194.6,406.3z"/>
		<path class="st7" d="M1164,440.9c3.4-3.9,7.4-7,11.2-6.4c6.9,1.2,6.6,13.8,15.9,32.8c8.9,18.2,15.9,20.2,15.9,31.3
			c0,7.8-3.5,13.6-8.9,22.3c-2,3.2-8.7,13.6-23.8,26.3c-8,6.6-20.2,15.6-37.2,23.2c6.4-6.8,11.7-12.2,15.3-15.8
			c9.8-9.7,13.3-12.7,16.9-19.4c3-5.6,2.4-7.1,5.1-12.8c4.3-9.1,10.6-15.2,15.3-18.9c-2-4-4-8.2-6-12.4
			C1175.7,473.8,1169.2,457,1164,440.9z"/>
		<g>
			<g>
				<path d="M1193.5,407.4c20.8,17.1,25.4,46,29.3,71.1c1.2,8.1,2.3,16.2,3.1,24.3c0.7,7.6,1.7,15.5,0.2,23
					c-2.9,14.6-16.4,26.3-28.1,34.4c-1.6,1.1-0.1,3.7,1.5,2.6c11.5-7.9,24.3-18.9,28.6-32.7c2.2-7,1.9-14.4,1.3-21.6
					c-0.7-8.4-1.7-16.7-2.8-25c-3.8-27.2-8.3-59.5-30.9-78.1C1194.2,404,1192,406.2,1193.5,407.4L1193.5,407.4z"/>
			</g>
		</g>
		<g>
			<g>
				<path d="M1162.6,441.3c8.2,20.3,16.4,40.6,24.5,60.8c0.7,1.8,3.6,1,2.9-0.8c-8.2-20.3-16.4-40.6-24.5-60.8
					C1164.8,438.8,1161.9,439.5,1162.6,441.3L1162.6,441.3z"/>
			</g>
		</g>
		<g>
			<g>
				<path d="M1199,495c-13,7.5-20.9,20.1-28.4,32.6c-9.1,15.2-19,28.9-32.8,40.2c-1.5,1.2,0.6,3.3,2.1,2.1
					c12.7-10.4,22.5-22.9,31-37c8-13.3,15.8-27.4,29.7-35.4C1202.2,496.7,1200.7,494.1,1199,495L1199,495z"/>
			</g>
		</g>
	</g>
	<g id="torso">
		<path class="st3" d="M1050.4,404.5c1,7.7,2.6,19.9,5.1,34.7c6.9,41.7,12.8,59.4,18.5,92.6c2.4,14.1,5.5,35.1,7.4,61.1
			c7.8,5.4,18,10.8,30.6,13.9c47.4,11.5,87.9-20.6,94.4-25.9c-2.8-26.1-3.6-47.4-3.7-62c-0.4-39.7,3.3-55.7-0.6-84.6
			c-3.2-24-9.8-43.1-14.8-55.2c-13.7-4.7-60-18.8-105.9,3.6C1068.3,389.2,1058.1,397.1,1050.4,404.5z"/>
	</g>
	<g id="hand_left">
		<path class="st1" d="M904.3,336c-0.4,0.2-1,0.9,0.4,11.1c0.9,6.6,1.5,8.5,2,11.7c1.4,10-1.2,12.4-0.5,22.2
			c0.5,6.7,2.2,11.6,3.2,14.8c2.6,7.7,5.9,12.4,17.7,29.1c10.5,14.7,9.5,13.2,10.5,14.7c8.1,12.1,9.3,17.2,19.5,37.4
			c10.1,19.9,15.3,27.7,18.6,32.3c7.1,9.9,12.8,15.8,21,19.7c3.2,1.5,8.9,4.2,16.3,3.8c4.2-0.2,9.2-1.4,16.9-6.3
			c13.6-8.6,21.3-19.8,26.3-27c10.5-15.5,14.8-29.1,15.9-32.5c4.3-14,4.6-25,4.8-31.6c0.3-12.4,0.4-20.6-5.4-27.3
			c-0.3-0.4-7.5-8.5-14.7-6.7c-3.5,0.9-5.3,3.6-9.8,10.9c-10.4,17.1-13.8,23.6-13.8,23.6c-2.5,4.7-7.5,14.4-11.5,21.3
			c-3.9,6.9-9.9,16.5-18.4,27.6c-2.5-3.2-5.9-7.7-9.8-13.2c-7.2-10.1-11.4-16-16.1-24.2c-6.3-11.1-10.3-18-12.2-28.4
			c-1.6-8.2-1.5-16.5-1.5-18.8c0.1-12.7,2.5-19.8-2.1-24.2c-0.2-0.2-3.2-3.1-6.1-2.3c-2.8,0.8-4.8,4.7-4.6,9.8
			c-4.7-3.1-9.9-7.1-15-12.1c-4.5-4.5-6.9-7.7-18-21.2C908.7,338.8,905.7,335.3,904.3,336z"/>
		<path class="st8" d="M907.6,366.6c1.7,6.7,4.7,16.6,10.5,27.5c8.8,16.7,15.6,20.1,27,35.8c11.6,16,8,17,27,50.1
			c16.1,27.9,22.1,33.2,29.5,34.4c10,1.7,18.9-4.8,24.6-8.8c11.9-8.6,17-19.2,26-38.8c9.9-21.5,17.7-38.7,22.6-49.8
			c1.1,5.1,2,11.3,2.1,18.3c0,3,0,12.9-3.2,25.9c-7,27.9-23.2,46.4-27.4,51c-9.1,10-16.6,17.9-28.7,19.7c-10,1.5-18.2-1.8-20.8-3
			c-11.3-4.9-17.2-13.6-26.3-27.7c-3.3-5.1-4.5-7.6-16.4-30.6c-10-19.4-15.1-29.2-16.4-31.1c-8.3-12.6-13.5-16.5-22.8-32.6
			c-4-7-6-11.3-7.2-16.6C905.3,380.5,906.4,371.9,907.6,366.6z"/>
		<g>
			<g>
				<path d="M1060.2,398.4c-6.5,0.5-11,4.5-14.6,9.7c-5.1,7.3-8.9,15.8-13.1,23.6c-4.7,8.7-9.4,17.4-14.1,26
					c-4.5,8.4-9,16.8-15.5,23.8c-1.3,1.4,0.8,3.5,2.1,2.1c11.1-11.9,17.8-27.6,25.4-41.8c4.4-8.1,8.7-16.2,13.1-24.3
					c3.6-6.7,8.1-15.5,16.7-16.1C1062.1,401.2,1062.2,398.2,1060.2,398.4L1060.2,398.4z"/>
			</g>
		</g>
		<g>
			<g>
				<path d="M1004.4,489.5c0.3-5.7-2.5-10.3-5.9-14.7c-4.9-6.3-10.1-12.4-14.4-19.1c-8.5-13.1-14.8-27.4-19.1-42.4
					c-0.5-1.9-3.4-1.1-2.9,0.8c3.9,13.6,9.4,26.6,16.7,38.8c3.4,5.7,7.3,11.2,11.4,16.5c4.7,6,11.6,11.9,11.2,20.2
					C1001.3,491.5,1004.3,491.5,1004.4,489.5L1004.4,489.5z"/>
			</g>
		</g>
		<g>
			<g>
				<path d="M964.8,412.7c0.3-7.4,0.5-14.8,0.1-22.3c-0.3-5.4-0.3-12.7-2.8-17.6c-1.5-3-4.5-4.3-7.3-2c-3.8,3.1-5.4,10.6-6.5,15
					c-0.5,1.9,2.4,2.7,2.9,0.8c0.4-1.6,4.4-17.1,8.6-11.5c0.7,0.9,0.8,3.7,1,4.7c0.4,2.6,0.7,5.2,0.9,7.9c0.7,8.3,0.3,16.7,0,25
					C961.7,414.7,964.7,414.7,964.8,412.7L964.8,412.7z"/>
			</g>
		</g>
		<g>
			<g>
				<path d="M950.2,382.9c-8.2-6.5-15.7-13.8-22.4-21.8c-3.7-4.5-7.1-9.2-10.2-14.1c-2.2-3.5-4-8.4-7.1-11.3
					c-5.1-4.6-9.7,0.3-9.1,5.9c0.5,4.7,3.2,8.7,5.8,12.5c3.6,5.3,7.3,10.5,10.9,15.7c1.1,1.6,3.7,0.1,2.6-1.5
					c-4.8-7-10.8-13.9-14.5-21.5c-0.6-1.3-2.6-5.5-1.8-7.2c2.9-6.2,6.3,1.5,7.2,3.1c1.8,3.2,3.7,6.3,5.8,9.4
					c8.5,12.6,18.8,23.6,30.7,33C949.6,386.2,951.7,384.1,950.2,382.9L950.2,382.9z"/>
			</g>
		</g>
		<g>
			<g>
				<path d="M904.3,350.7c-0.3,13.9,4.4,27,13.3,37.6c1.2,1.5,3.4-0.7,2.1-2.1c-8.4-10-12.8-22.4-12.5-35.5
					C907.3,348.7,904.3,348.7,904.3,350.7L904.3,350.7z"/>
			</g>
		</g>
		<g>
			<g>
				<path d="M905.2,358.4c-2.9,10.8-1.2,21.9,4.9,31.3c1,1.6,3.6,0.1,2.6-1.5c-5.6-8.7-7.3-19-4.6-29
					C908.6,357.4,905.7,356.6,905.2,358.4L905.2,358.4z"/>
			</g>
		</g>
		<g>
			<g>
				<path d="M904.6,378c0,14.8,7,27.6,15.3,39.4c9.4,13.4,19.2,26,26.6,40.7c13.9,27.6,25.3,60.2,54.8,75c1.7,0.9,3.2-1.7,1.5-2.6
					c-28.9-14.6-40.1-46.8-53.7-73.9c-6.9-13.7-15.8-25.7-24.8-38.2c-8.7-12.1-16.7-25.1-16.7-40.4
					C907.6,376.1,904.6,376.1,904.6,378L904.6,378z"/>
			</g>
		</g>
		<g>
			<g>
				<path d="M1002.3,533.2c16,4.2,31-5.5,41.7-16.6c11.3-11.6,20.3-25.6,26.3-40.6c6.1-15.2,9.1-31.8,7.6-48.2
					c-1-10.9-3.9-28.5-17.7-29.6c-1.9-0.2-1.9,2.8,0,3c14.2,1.2,15.1,25,15.1,35.2c0,14.2-3.3,28.4-8.9,41.4
					c-5.4,12.6-13,24.2-22.3,34.4c-10.2,11.2-25,22.4-41,18.2C1001.3,529.8,1000.5,532.7,1002.3,533.2L1002.3,533.2z"/>
			</g>
		</g>
	</g>
	<g id="head">
		<path class="st2" d="M1094.1,239.2c-15.7,7.5-21.8,22-26.2,32.5c-5.8,13.8-5.9,25.3-5.8,42.5c0.1,21.6,3.6,23.1,3.9,43.3
			c0.5,30.5-7.3,33.2-2.9,46.6c6.9,21.4,33.6,37.1,58.3,41.6c39.1,7.2,85-11.2,92.3-35.8c6.4-21.5-22.2-28.8-37.9-71.6
			c-17.6-48,5.5-73.4-18.5-92.4C1141.2,233.1,1112.9,230.2,1094.1,239.2z"/>
	</g>
</g>
</svg>
